<svg xmlns="http://www.w3.org/2000/svg" viewBox="0 0 1801.1 515.4"><path d="M782.1 156.3a52.5 52.5 0 00-29.2 8.3 57.2 57.2 0 00-20.1 22.8c-3.5 7.4-5 15.4-5 23.5v72c.2 10.4 3.1 20.7 9 29.2 6.9 9.9 17 18 28.5 21.6a55 55 0 0016.8 2.5H908V408h36V156.2H782.2zm2.3 36.1H908v107.7H787c-3.2 0-6.7.2-9.8-.6A17.7 17.7 0 01764 283c-.1-24.3 0-48.7 0-73 0-7.5 5.2-14.4 12.2-16.7 2.5-.8 5.4-.8 8.1-.8zM962 156.3h36v125.6c-.3 9.5 7.6 18 17.1 18.1h109c9.4.3 17.8-7.7 17.8-17V156.2h36.1v128.6a54 54 0 01-53.9 51.3h-108a54.3 54.3 0 01-54.1-51.3V156.3zM1329.1 156.3h-105.7v36.1H1332c9 0 16.8 7.6 17.2 16.4.2 6.5 0 13 0 19.4h-100.2c-5 0-10-.2-15 .4a54.2 54.2 0 00-10.5 104.8c6 2 12.2 2.8 18.5 2.8h143.5V209.9c0-10.3-2.9-20.4-8.6-29a55.5 55.5 0 00-29.6-22.4c-6-1.8-12-2.3-18.3-2.2zm-88 108h108.3v35.8H1246c-3.3 0-7 .2-10.2-.8-5-1.6-9-5.4-11-10.2-2.4-6-1.7-13 2.4-18 3.3-4.3 8.4-6.8 13.8-6.8zM1457 156.3h108.3v36.1H1457a17.7 17.7 0 00-16.6 10.9c-1.7 4-1.2 8.4-1.2 12.6v120.3H1403V210.9c0-6.8 1-13.4 3.4-19.8a56.1 56.1 0 0121-26c8.7-6 19.1-8.8 29.7-8.8zM1637 156.3c-10 0-20 2.6-28.4 8a55.6 55.6 0 00-23.2 29.8 59.4 59.4 0 00-2.4 17.8v70c0 10 2.5 19.8 7.8 28.3a55.2 55.2 0 0032.1 24.2c5 1.4 10 1.8 15.2 1.8h161.2V300H1643c-3.7-.1-8 .3-11.5-.8-7-2.3-12.3-9-12.3-16.4-.2-6.2 0-12.4 0-18.6h180V210a52 52 0 00-8.5-28.7 56 56 0 00-27.1-21.8c-6-2.2-12.2-3-18.5-3.1H1637zm106.6 36.1a17.6 17.6 0 0119.4 16.5v19.3h-143.8v-19.3c.5-9.2 8.7-16.8 18-16.5h106.4z" fill="#253a67"/><g fill="#253a67"><path d="M395.4 0H.1L0 396a97.8 97.8 0 0096.1 96h419.5l-.7-143c0-4.3.1-8.5-.2-12.8h144.4c10.5.2 21-2.6 29.8-8.4a56.1 56.1 0 0021.5-26.6 54.2 54.2 0 00-51.3-73h-97c-9 .3-17-7.2-17.6-16.2a17.8 17.8 0 0110-17.7c4.4-2.3 8.8-1.7 13.6-1.8H710v-36.1H562c-9 0-18 2.1-25.9 6.6a58.1 58.1 0 00-21.9 22.3c-.2-28.8-.4-57.5-.3-86.3 0-17.3-6.4-33.4-16.6-47.2A132 132 0 00444 11C428.8 4.4 412 .1 395.4 0zM193.1 156.7c6 0 11.9.8 17.5 2.6a57.3 57.3 0 0129.4 22.6c6 8.9 9 19.4 9 30v68c0 7.2-1 14.4-3.7 21.1a57.9 57.9 0 01-21.6 26.4c-9 6-19.7 9-30.6 9H79.5v67.9H35.1V156.7h158zm130 0h36a55 55 0 0131.8 11.4 55 55 0 0133.2-11.4h38a56 56 0 0148.4 33.8c.7 1.5.4 2.4 0 3.9-3 10.2-3 21.7 0 32 3.7 12 11.9 22 22 29 8.8 6 19.1 9 29.6 8.9h98c9.4 0 17.5 8.2 17.4 17.6.4 9.6-7.7 18.2-17.4 18.1H512v36.4h-41.4V212.9c.3-6.2-5.2-12-11.3-12H425a11.8 11.8 0 00-12.2 12v123.5h-44.3V217.9c0-3.3.4-7.3-1-10.3-2-4-6-6.7-10.5-6.7h-32c-2.4 0-4.7 0-6.9 1-4.3 1.9-7 6.2-6.9 11v123.5H267V212.9c0-7.3 1.2-14.4 3.9-21.2a57.8 57.8 0 0121.8-26.3c9-6 19.7-8.8 30.4-8.7z"/><path d="M79.4 201h113.8c6.3 0 11.7 5.5 11.6 11.9v67a12 12 0 01-12.7 12.3H79.4v-91.3z"/></g><path d="M894.4 407.7v5.7c-5.2-.7-12.2-1.7-16.2 2.5-3.7 4.2-2.4 12.1-2.6 17.4H901l26.9 50.8c8.1-17 16-34 24.3-50.8h8.8c-13.6 26.9-27 53.8-40.7 80.7h-8.8l11.6-22.4c-7.7-14.7-15.8-29.4-23.6-44-2-4-4.3-7.5-6-11.5l-.6 2.8c-5.7.2-11.5 0-17.3 0v52.7h-7.9V439h-15.1v-5.7h15.1c.1-5.8-.5-12.5 2-17.9 1.6-3.7 4.7-6.3 8.6-7.4 5-1.5 11-1 16-.3zM594.6 408h7.7v9.6h-7.8l.1-9.6zM814.3 408h7.7v83.6h-7.7V408zM837.9 408h7.8v9.6H838V408zM967.6 408h7.7v9.6h-7.7c0-3.2-.2-6.4 0-9.5zM1517.7 408h7.9v83.5h-8c.2-27.8 0-55.7.1-83.5zM1677.9 408h7.7v9.6h-7.8V408zM1715 418.5v14.8h26c9.1 16.8 17.9 33.9 27 50.7 8.1-16.9 16-33.8 24.2-50.7h8.9c-13.7 26.8-27 54-40.8 80.7h-8.8l11.2-21.6c.8-1-.4-2.4-.7-3.3l-30-55.6v5.5h-17v37.9c0 3.4.8 7.3 4.2 8.9 4 1.4 9 .5 13.1 0l.2 5.6c-6 .8-14.1 1.9-19.7-1.3-4.5-2.6-5.5-7.3-5.6-12.2v-39h-14.9v-5.6h15v-11.5c2.5-1.1 5-2.3 7.7-3.3zM557.1 431.6c7.3.1 16 1.5 21 7.2a15 15 0 013.7 9.5h-8c-1-3-1.8-5.7-4.5-7.6a28.2 28.2 0 00-17.2-3.4c-4.4.4-9.7 1.4-13 4.6-3.3 3.3-3.2 9.4 1 12 5 2.8 11.6 3.6 17.2 4.8 6.6 1.5 14.4 2.4 20.3 5.7 8.4 4.4 7.6 18.2.3 23.3-6.3 5-16 5.6-23.8 5.6-7.6-.1-17-1-22.6-6.8a18.3 18.3 0 01-5-11.5h8.3c.8 3.6 1.8 7 5 9.1 5.5 3.5 13.2 3.7 19.3 3.4 4.7-.3 10.4-1.4 13.8-4.9 2.9-2.9 3.5-8.8.1-11.6-2.3-1.9-5.6-2.8-8.4-3.6-7.6-2-15.4-3-23-5-4.5-1.4-9-3.4-11.3-7.8a14.3 14.3 0 013.6-17c6.1-5.2 15.5-6.2 23.2-6zM650.1 431.5c5.6 0 11 1.3 15.3 5 3.2 2.8 5 6.5 6.2 10.4a27 27 0 0125.5-15.4c6.8.2 13.6 2 18.3 7.1 4.1 4.7 5.2 11.3 5.3 17.3v35.7h-7.9v-34.7c-.2-6.4-1.8-13.6-7.6-17.1-9.1-5.4-22.6-2-28.1 7-2.7 4.2-3.8 9-3.8 14v30.8h-7.9v-34.7c-.1-5.6-1.2-11.9-5.6-15.7-4.8-4.3-12.5-4.8-18.5-3-6.3 1.7-11 6.5-13.4 12.5-2 4.6-2 9.2-2 14.2v26.7h-7.7c-.1-19.5.3-38.9-.4-58.3h7.5l.3 12.3c1.6-2.8 3.3-5.4 5.7-7.6 5.1-4.6 12-6.6 18.8-6.5zM771.6 431.5c-5.9 0-12 .8-17.1 3.7a29.7 29.7 0 00-10.5 10.6l-.4-12.5H736c.6 26.9.2 53.7.3 80.6h7.8v-33.3a26 26 0 0013.7 10.7 38.3 38.3 0 0032.8-3.8 28.1 28.1 0 0011.9-19.6c1.2-9.1-.5-18.8-6.5-26a30.8 30.8 0 00-24.5-10.4zm-2.2 5.7c3.9 0 7.8.7 11.3 2 6.3 2.4 11 7.6 12.8 14.2 1.7 6.5 1.7 13.9-.8 20.2-2.7 7-9.2 11.9-16.6 13.3-9.4 1.8-20 .3-26.5-7.5-5.6-6.8-6.5-17-4.2-25.3a22.6 22.6 0 0115.2-15.6 30 30 0 018.8-1.3zM1031.7 432.4c5.2 1.2 10.4 4 13.5 8.4 3 4.3 4 9.9 4 15v35.8h-7.7v-33.7c0-4.8-.4-9.3-3-13.4-3-4.3-8.3-6.7-13.4-7.1a24.7 24.7 0 00-19.5 6c-4.6 4.7-6.5 11-6.7 17.5v30.7h-7.7c-.1-19.5.2-38.9-.4-58.3h7.5c0 4 .3 8 .4 12.1a23 23 0 017.9-9c7.5-5 16.4-5.8 25-4zM1093.7 431.5a38 38 0 00-19.3 4.6A27.2 27.2 0 001061 456c-1 7-.3 14.5 3.4 20.7a26 26 0 0011.4 10.6 42 42 0 0021.3 3.5c8.9-.9 17.2-5 22-12.8-.2 7.9.8 16-3.9 23-4.3 6.4-11.9 8.3-19 8.8-6.6.3-14.6 0-20.2-3.7-3.2-2-4.3-5.2-5.3-8.7h-8.2c.6 4.7 2.3 9 6 12.2 5.7 4.7 14.5 5.7 21.6 5.9 9.4.3 20.3-.5 27.9-6.7 6.5-5.2 8.5-13.4 8.8-21.4.3-18-.2-36 .3-54h-7.4l-.3 11.1a25.6 25.6 0 00-16.7-12c-3-.5-6-.9-9-.9zm.2 5.7c5.3 0 10.6 1.1 15 3.9 5.2 3.1 8.4 8.4 9.6 14.3 1.2 6.9.6 14.4-3.6 20.3-4.3 6.1-11.4 9-18.8 9.4-7.4.3-15.2-1-20.7-6.5-6.6-6.3-7.7-16.8-5.5-25.2 2-7.3 7.5-12.8 14.7-14.9 3-.8 6-1.3 9.3-1.3zM1205.1 431.6c8.8-.3 18.2 1.3 24.8 7.5a23 23 0 016.6 12.4h-8.4a17 17 0 00-10.2-12.3c-8-3.1-18-2.6-25.3 2.1-6 3.8-9.7 10.6-10.3 17.6-.8 6.7.5 14.5 4.7 20a23 23 0 0017.1 8.6c6.4.3 13.9-.4 19-4.7 3-2.4 4.5-5.8 5.5-9.5h8.3c-.8 3.7-2 7.1-4.3 10-4.8 6.1-12 8.8-19.5 9.6-8.3 1-17.7.4-25.2-3.7-6.4-3.4-11-9.3-12.8-16.3a34.4 34.4 0 015.5-30.6 32.5 32.5 0 0124.5-10.7zM1275.8 431.5a53 53 0 00-10.2 1 30.3 30.3 0 00-19 11.9c-4.8 7-5.8 16.2-4.6 24.5.9 6 3.5 11.8 8 16 6.2 5.9 14.9 8 23.1 8.3 9.1.4 18.6-.8 26.2-6.2A26.8 26.8 0 001310 468c1-8.4 0-17.7-5.2-24.7a29 29 0 00-18.9-10.8c-3.3-.6-6.7-.9-10.1-.9zm0 5.7c7.1 0 14.4 1.9 19.3 6.7a25.3 25.3 0 017 20c-.3 7.4-3.5 14.9-9.8 19.2-6.4 4.3-14.2 5-21.7 4.1-7.2-1-14-4.7-17.6-11.2-3.8-7-4.1-16.2-1.5-23.7a22.3 22.3 0 0115-13.8c3-.8 6.1-1.3 9.3-1.3zM1354.1 431.5c5.6.2 10.9 1.4 15 5.3 3.2 2.7 4.9 6.3 6 10.2 2.8-6.3 8.1-11 14.5-13.5a30.8 30.8 0 0117.4-1.3c5.2 1 10.5 3.8 13.4 8.4 3 4.6 3.7 10 3.7 15.3v35.7h-7.7l-.1-34.7c-.3-6.6-1.7-13.8-7.9-17.3a21.7 21.7 0 00-26.8 5.8 25.2 25.2 0 00-4.8 15.5v30.7h-7.8v-32.7c0-4.7-.5-9.9-2.8-14.1-2-3.7-5.7-6.1-9.9-7a22.8 22.8 0 00-17.2 3 23.8 23.8 0 00-9.6 19.1v31.7h-7.9c0-19.5.3-39-.3-58.3h7.4c.2 4 .3 8.1.3 12.2a33 33 0 015-6.7c5.2-5.2 13-7.5 20.1-7.3zM1472.9 431.5c-5.3.2-10.7 1.2-15.3 3.9a30.1 30.1 0 00-10.1 10.4c-.2-4.2-.2-8.4-.5-12.5h-7.4c.8 26.9.1 53.8.4 80.6h7.7v-33.4c3.5 5.4 8.4 9.3 14.6 11.1a38.2 38.2 0 0032.2-4.3 28.2 28.2 0 0011.6-19.4c1.1-9-.4-18.5-6.3-25.7a30.5 30.5 0 00-21.7-10.5l-5.2-.2zm.5 5.7c3.9 0 7.8.8 11.2 2.2 6.3 2.5 10.8 8 12.5 14.5a32.9 32.9 0 01-1 20c-2.7 6.7-9 11.4-16 12.9-7.4 1.5-16.1 1-22.5-3.4a22.4 22.4 0 01-9.5-15.5c-1-6.6-.2-13.8 3.4-19.7 2.9-4.8 7.6-8.3 13-9.9 2.8-.8 5.8-1.1 8.9-1zM1569.8 431.5a36 36 0 00-21.8 6.2 29.2 29.2 0 00-11 22.2c-.6 8.6.9 17.5 7 24 6.3 6.8 15.2 9.2 24.1 9.4 8.4.1 18-1.2 24.8-6.7 4-3.1 6.4-7.6 7.5-12.5h-8.3c-1.4 3.1-2.8 6-5.5 8.3-5 4.3-12 5.3-18.5 5.1a23.7 23.7 0 01-16.6-6 25.4 25.4 0 01-6.9-17.4h57c.1-7.9-.9-15.4-5.8-21.9-5-6.6-12.6-9.6-20.7-10.4-1.7-.2-3.5-.3-5.3-.3zm-.1 5.7c2.2 0 4.4.3 6.4.7 5.7 1 10.8 4.1 13.9 9a25 25 0 013.4 11.6H1545a24 24 0 016.8-15 25.8 25.8 0 0118-6.3zM594.6 433.3h7.7v58.3h-7.7c0-19.4-.2-38.9 0-58.3zM845.7 433.3v58.3h-7.8l-.1-58.2c2.6-.1 5.3-.2 7.9-.1zM967.6 433.3h7.7v58.3h-7.8l.1-58.3zM1603 433.3h10.6l23.1 24 22.9-24h9.8l-27.8 28.1 30 30.2h-11l-24.7-26c-8.1 8.5-16.2 17.3-24.4 25.7-3.3.6-6.8.2-10.2.3l29.5-30.2-27.8-28.1zM1685.6 433.3v58.3h-7.8v-58.3h7.8z" fill="#253a67"/></svg>