<svg width="40" height="40" viewBox="0 0 40 40" fill="none" xmlns="http://www.w3.org/2000/svg">
<path d="M24.1079 20.1719C24.1287 19.8998 24.1319 19.6263 24.1174 19.3531L26.3831 14.8207C26.3793 14.8732 26.3773 14.9261 26.3773 14.9795C26.3773 16.1788 27.3499 17.1514 28.5492 17.1514H33.8071C35.0075 17.1514 35.9789 16.1784 35.9789 14.9795C35.9789 13.7797 35.007 12.8077 33.807 12.8077H28.5492C27.8832 12.8077 27.287 13.1075 26.8885 13.5797C27.0118 13.0965 27.0516 12.6045 27.0141 12.1224C27.4072 12.5151 27.95 12.7578 28.5492 12.7578H33.8071C35.0071 12.7578 35.9789 11.7858 35.9789 10.5859C35.9789 9.38709 35.0074 8.41406 33.807 8.41406H28.5492C27.4836 8.41406 26.597 9.18195 26.4126 10.1943C25.9855 9.46049 25.3467 8.83855 24.5305 8.43005L24.53 8.42977C24.485 8.40731 24.4399 8.38567 24.3946 8.36484H33.8071C35.0074 8.36484 35.9789 7.3919 35.9789 6.19297C35.9789 4.99396 35.0072 4.02109 33.807 4.02109H21.2555C20.0551 4.02109 19.0836 4.99424 19.0836 6.19297C19.0836 7.22152 19.7988 8.084 20.7602 8.30814C19.7998 8.71142 18.9733 9.44631 18.4713 10.4494L18.4711 10.4499L17.4838 12.4252C17.3794 12.3733 17.2748 12.3213 17.1701 12.2693C16.7993 12.0849 16.4275 11.9 16.0625 11.7186V3.68195C16.0625 2.20084 17.2631 1 18.7445 1H36.318C37.7991 1 39 2.20087 39 3.68203V17.4899C39 18.971 37.7991 20.1719 36.3181 20.1719H30.4148H28.9822L29.4761 21.5166L33.9682 33.7486L33.9684 33.7491C33.9902 33.8084 33.9812 33.8587 33.9488 33.9044C33.9135 33.9541 33.8628 33.9795 33.8077 33.9795C33.7347 33.9795 33.6703 33.9342 33.6455 33.8669L28.8568 20.8271L28.6162 20.1719H27.9181H27.0969H26.3965L26.1571 20.8301L21.4165 33.866L21.416 33.8672C21.3917 33.9344 21.3275 33.9795 21.2555 33.9795C21.2105 33.9795 21.1849 33.9694 21.1694 33.9608C21.1517 33.951 21.1331 33.9351 21.1171 33.9109C21.0814 33.8574 21.0766 33.7955 21.0935 33.749L21.0936 33.7488L25.5431 21.5136L26.031 20.1719H24.6033H24.1079Z" stroke="#3173B0" stroke-width="2"/>
<path d="M19.6725 20.3462L19.6725 20.3462C19.8141 19.9313 19.8137 19.4975 19.6931 19.0987L19.578 18.7178L19.7559 18.362L22.6642 12.5461C22.7069 12.4607 22.672 12.3575 22.5876 12.3153L22.5871 12.3151C22.503 12.273 22.3996 12.3068 22.3568 12.3922C22.3568 12.3922 22.3568 12.3922 22.3568 12.3923L19.8764 17.3525L19.4298 18.2454L18.5362 17.8004C17.345 17.2072 15.6566 16.3676 14.0975 15.5922C13.7166 15.4028 13.3434 15.2172 12.9871 15.04C12.7794 14.9367 12.5826 14.8371 12.3942 14.7417C10.9867 14.0289 10.0453 13.5522 8.48359 13.5522H7.44813V12.5522V11.5522C8.73483 11.5522 9.88246 10.9613 10.6357 10.0326L10.6365 10.0315C11.2101 9.32628 11.5525 8.42922 11.5525 7.44844C11.5525 5.18123 9.7151 3.34375 7.4475 3.34375C5.18131 3.34375 3.34375 5.18107 3.34375 7.44844C3.34375 8.53761 3.76678 9.52537 4.45925 10.2603L4.45987 10.261C5.20863 11.0572 6.26942 11.5522 7.44719 11.5525C7.44726 11.5525 7.44733 11.5525 7.4474 11.5525L7.44719 13.5525C7.44712 13.5525 7.44705 13.5525 7.44697 13.5525C5.74828 13.5526 4.08387 14.243 2.89125 15.4388L2.88939 15.4407C1.67012 16.6568 1 18.2725 1 20.0003V23.7659C1 24.9437 1.76514 25.9511 2.82945 26.3094L3.51039 26.5386V27.2571V33.8073C3.51039 33.9024 3.58724 33.9792 3.68227 33.9792H11.2134C11.3084 33.9792 11.3852 33.9024 11.3852 33.8073V20.6406V19.0227L12.8324 19.7462L12.8436 19.7518C13.9533 20.3065 15.4071 21.0332 16.5842 21.6221L19.6725 20.3462ZM19.6725 20.3462L19.6702 20.3531M19.6725 20.3462L19.6702 20.3531M19.6702 20.3531L19.6669 20.3629C19.6667 20.3635 19.6665 20.3642 19.6663 20.3648C19.4639 20.9618 19.0102 21.4462 18.4165 21.6911M19.6702 20.3531L18.4165 21.6911M18.4165 21.6911C17.8197 21.9332 17.1535 21.9065 16.5845 21.6222L18.4165 21.6911Z" stroke="#3173B0" stroke-width="2"/>
</svg>
