<svg width="40" height="40" viewBox="0 0 40 40" fill="none" xmlns="http://www.w3.org/2000/svg">
<mask id="path-1-inside-1_14_219" fill="white">
<path fill-rule="evenodd" clip-rule="evenodd" d="M9.56454 15.8413C9.5643 15.0132 9.79674 14.2017 10.2353 13.4992C10.674 12.7968 11.3011 12.2318 12.0453 11.8685C12.7895 11.5052 13.6207 11.3583 14.4444 11.4446C15.268 11.5309 16.0508 11.8468 16.7035 12.3564C16.5576 12.8644 16.4834 13.3903 16.4831 13.9189C16.4831 14.1009 16.4916 14.2841 16.5089 14.464C16.5206 14.5861 16.5679 14.7021 16.6451 14.7976C16.7222 14.893 16.8257 14.9636 16.9427 15.0006C17.4027 15.1466 17.8848 15.2715 18.3802 15.3765C18.3967 15.5308 18.4051 15.6858 18.4053 15.841V15.8543C16.9647 16.2456 15.4778 16.4401 13.985 16.4324C12.4922 16.4402 11.0052 16.2457 9.56462 15.8543V15.841L9.56454 15.8413ZM11.9795 8.16528C11.9795 7.76863 12.0971 7.38089 12.3174 7.05108C12.5378 6.72127 12.851 6.46421 13.2174 6.31241C13.5839 6.16061 13.9871 6.12089 14.3761 6.19826C14.7652 6.27563 15.1225 6.46663 15.403 6.74709C15.6835 7.02756 15.8745 7.3849 15.9519 7.77392C16.0293 8.16295 15.9895 8.56619 15.8378 8.93264C15.686 9.2991 15.4289 9.61232 15.0991 9.83268C14.7693 10.0531 14.3816 10.1707 13.9849 10.1707C13.4532 10.1703 12.9433 9.95884 12.5673 9.58285C12.1913 9.20686 11.9799 8.69702 11.9795 8.16528ZM22.1533 9.4984C20.9813 9.49981 19.8577 9.96604 19.029 10.7948C18.2004 11.6236 17.7343 12.7472 17.733 13.9192V13.9324C19.1735 14.3238 20.6605 14.5183 22.1533 14.5105C23.6461 14.5183 25.1331 14.3238 26.5737 13.9324V13.9192C26.5724 12.7472 26.1063 11.6235 25.2776 10.7947C24.4489 9.96595 23.3253 9.49975 22.1533 9.4984ZM20.1479 6.24317C20.1479 5.84652 20.2655 5.45877 20.4859 5.12896C20.7062 4.79915 21.0194 4.54209 21.3859 4.3903C21.7523 4.2385 22.1556 4.19878 22.5446 4.27615C22.9336 4.35353 23.291 4.54454 23.5715 4.82501C23.8519 5.10549 24.0429 5.46283 24.1203 5.85186C24.1977 6.24089 24.158 6.64413 24.0062 7.01059C23.8544 7.37704 23.5973 7.69025 23.2675 7.91061C22.9377 8.13097 22.5499 8.24858 22.1533 8.24856C21.6216 8.24792 21.1119 8.03643 20.736 7.66049C20.36 7.28454 20.1485 6.77484 20.1479 6.24317ZM30.3221 11.4206C31.4941 11.4219 32.6177 11.8881 33.4463 12.7169C34.275 13.5457 34.741 14.6693 34.7422 15.8413V15.8546C33.3016 16.246 31.8147 16.4405 30.3219 16.4327C28.8292 16.4404 27.3424 16.246 25.9019 15.8546V15.8413C25.9021 15.6862 25.9101 15.5312 25.9258 15.3768C26.422 15.2718 26.9033 15.1469 27.364 15.0009C27.4809 14.9639 27.5843 14.8933 27.6615 14.7979C27.7386 14.7026 27.786 14.5867 27.7978 14.4647C27.8148 14.285 27.8236 14.1016 27.8236 13.9192C27.8234 13.3906 27.7492 12.8647 27.6032 12.3567C28.3792 11.7492 29.3365 11.4197 30.322 11.4209L30.3221 11.4206ZM28.3167 8.16528C28.3166 7.76859 28.4342 7.38079 28.6546 7.05093C28.8749 6.72108 29.1881 6.46397 29.5546 6.31214C29.9211 6.16031 30.3244 6.12057 30.7135 6.19794C31.1025 6.27531 31.4599 6.46633 31.7404 6.74683C32.021 7.02732 32.212 7.38471 32.2894 7.77378C32.3668 8.16285 32.327 8.56613 32.1752 8.93262C32.0234 9.29911 31.7663 9.61235 31.4365 9.83272C31.1066 10.0531 30.7188 10.1707 30.3221 10.1707C29.7904 10.1701 29.2807 9.95857 28.9048 9.58262C28.5288 9.20668 28.3173 8.69696 28.3167 8.16528ZM8.77345 16.9231C10.3438 17.4203 12.1459 17.6831 13.9852 17.6831C15.8244 17.6831 17.6258 17.4203 19.1957 16.9231C19.3126 16.886 19.416 16.8154 19.4932 16.7201C19.5703 16.6247 19.6177 16.5088 19.6295 16.3868C19.6465 16.2071 19.6553 16.0237 19.6553 15.8413C19.6553 15.7591 19.6532 15.6769 19.6491 15.5947C20.4793 15.7057 21.3159 15.7612 22.1535 15.7609C22.991 15.7612 23.8276 15.7057 24.6577 15.5947C24.6543 15.6769 24.6525 15.7591 24.6521 15.8413C24.6521 16.0226 24.6606 16.2062 24.6779 16.3864C24.6896 16.5085 24.7369 16.6245 24.814 16.7199C24.891 16.8153 24.9945 16.886 25.1114 16.9231C26.6811 17.4203 28.4834 17.6831 30.3224 17.6831C32.1613 17.6831 33.9638 17.4203 35.5333 16.9231C35.6502 16.886 35.7536 16.8154 35.8307 16.7201C35.9078 16.6247 35.9552 16.5088 35.967 16.3868C35.9841 16.2071 35.9929 16.0237 35.9929 15.8413C35.9916 14.7181 35.6573 13.6206 35.0322 12.6875C34.4071 11.7544 33.5193 11.0276 32.4811 10.5991C32.9754 10.1611 33.3248 9.58301 33.4828 8.94171C33.6409 8.30042 33.6001 7.62622 33.3659 7.00866C33.1317 6.39109 32.7151 5.85938 32.1716 5.48413C31.6281 5.10888 30.9833 4.90784 30.3228 4.90772C29.6623 4.9076 29.0174 5.1084 28.4738 5.48346C27.9301 5.85851 27.5134 6.39007 27.279 7.00755C27.0446 7.62503 27.0035 8.29922 27.1613 8.94057C27.3191 9.58192 27.6683 10.1601 28.1624 10.5983C27.7924 10.7505 27.4396 10.9416 27.1102 11.1686C26.4848 10.0467 25.4989 9.16873 24.3123 8.677C24.8066 8.23892 25.1559 7.66082 25.3139 7.01949C25.4719 6.37816 25.4311 5.70394 25.1968 5.08638C24.9625 4.46882 24.5459 3.93714 24.0023 3.56196C23.4587 3.18678 22.8138 2.98584 22.1533 2.98584C21.4928 2.98584 20.848 3.18678 20.3044 3.56196C19.7608 3.93714 19.3442 4.46882 19.1099 5.08638C18.8756 5.70394 18.8348 6.37816 18.9927 7.01949C19.1507 7.66082 19.5001 8.23892 19.9944 8.677C18.8082 9.16896 17.8227 10.0469 17.1975 11.1686C16.8675 10.9418 16.5144 10.7506 16.1441 10.5983C16.6381 10.1601 16.9872 9.58193 17.1448 8.94064C17.3025 8.29935 17.2614 7.62526 17.027 7.00788C16.7925 6.3905 16.3758 5.85905 15.8322 5.48409C15.2886 5.10913 14.6437 4.90841 13.9833 4.90857C13.3229 4.90874 12.6782 5.10979 12.1348 5.48502C11.5913 5.86026 11.1749 6.39192 10.9408 7.00942C10.7066 7.62692 10.6658 8.30103 10.8239 8.94224C10.9819 9.58346 11.3312 10.1614 11.8255 10.5994C10.7874 11.0281 9.89982 11.7549 9.27486 12.688C8.64989 13.6211 8.31565 14.7186 8.31439 15.8416C8.31439 16.024 8.32329 16.2072 8.34025 16.3871C8.35189 16.5091 8.39915 16.625 8.47614 16.7203C8.55314 16.8157 8.65647 16.8863 8.77329 16.9234L8.77345 16.9231ZM1.70157 25.5637L4.48071 23.6975C4.68907 23.5585 4.944 23.5075 5.1898 23.5558C5.4356 23.6041 5.65228 23.7478 5.79251 23.9554L11.4793 32.4234C11.619 32.6317 11.6703 32.8869 11.622 33.133C11.5736 33.3791 11.4296 33.5959 11.2215 33.7359L8.44212 35.6023C8.23379 35.7419 7.97862 35.7931 7.73257 35.7448C7.48652 35.6964 7.26968 35.5525 7.12962 35.3445L1.44353 26.8757C1.30391 26.6674 1.25264 26.4122 1.30097 26.1662C1.34931 25.9201 1.4933 25.7033 1.70134 25.5632L1.70157 25.5637ZM7.809 24.6897L7.7972 24.6982L12.002 30.9593L12.0863 30.89C12.198 30.7991 12.3375 30.7494 12.4815 30.7493H26.4542C27.0484 30.7608 27.6254 30.5506 28.073 30.1597L37.8613 21.9317C38.4761 21.4149 39.0224 20.5141 38.5388 19.6763C38.1034 18.9222 37.1325 18.6685 36.3284 19.0988L27.5692 23.7819C27.4753 24.3884 27.1677 24.9413 26.702 25.3409C26.2362 25.7404 25.643 25.9604 25.0293 25.961H19.1966C19.0308 25.961 18.8718 25.8951 18.7546 25.7779C18.6374 25.6607 18.5716 25.5017 18.5716 25.336C18.5716 25.1702 18.6374 25.0113 18.7546 24.894C18.8718 24.7768 19.0308 24.711 19.1966 24.711H25.0293C25.2034 24.7123 25.3761 24.6792 25.5374 24.6135C25.6986 24.5478 25.8453 24.4508 25.9689 24.3281C26.0925 24.2055 26.1906 24.0596 26.2576 23.8988C26.3245 23.738 26.359 23.5656 26.359 23.3915C26.359 23.2174 26.3245 23.0449 26.2576 22.8842C26.1906 22.7234 26.0925 22.5775 25.9689 22.4549C25.8453 22.3322 25.6986 22.2352 25.5374 22.1695C25.3761 22.1038 25.2034 22.0707 25.0293 22.072H19.1966C19.0589 22.0721 18.9251 22.0268 18.8159 21.943C17.5408 20.9631 15.9382 20.5099 14.3387 20.6769C12.7393 20.844 11.2649 21.6186 10.2199 22.8408C10.195 22.87 10.1675 22.8968 10.1377 22.9208C9.61837 23.3407 8.69876 24.0263 7.809 24.6897ZM6.09181 36.0413L0.405011 27.5731C0.0809695 27.0894 -0.0379206 26.4969 0.0744382 25.9257C0.186797 25.3545 0.521223 24.8511 1.00431 24.5262L3.78376 22.6597C4.26742 22.3358 4.85977 22.217 5.43094 22.3292C6.0021 22.4414 6.50546 22.7755 6.83064 23.2583L7.09931 23.659C7.94306 23.0301 8.80806 22.3851 9.30782 21.9834C10.5413 20.5636 12.2615 19.657 14.13 19.442C15.9984 19.2271 17.8796 19.7194 19.4032 20.822H25.0292C25.544 20.8225 26.0468 20.9775 26.4725 21.2668C26.8983 21.5562 27.2274 21.9667 27.4174 22.4452L35.7387 17.9961C37.1411 17.2461 38.8465 17.7097 39.6206 19.0508C40.3263 20.2727 39.9424 21.8148 38.6652 22.8881L28.8769 31.1162C28.2026 31.6936 27.3419 32.0072 26.4542 31.999H12.7042L12.6817 32.0175C12.9042 32.4924 12.9495 33.0311 12.8096 33.5365C12.6696 34.0419 12.3535 34.4806 11.9184 34.7733L9.13845 36.6405C8.65481 36.9646 8.06236 37.0835 7.49112 36.9712C6.91988 36.8589 6.41654 36.5246 6.09157 36.0415L6.09181 36.0413Z"/>
</mask>
<path fill-rule="evenodd" clip-rule="evenodd" d="M9.56454 15.8413C9.5643 15.0132 9.79674 14.2017 10.2353 13.4992C10.674 12.7968 11.3011 12.2318 12.0453 11.8685C12.7895 11.5052 13.6207 11.3583 14.4444 11.4446C15.268 11.5309 16.0508 11.8468 16.7035 12.3564C16.5576 12.8644 16.4834 13.3903 16.4831 13.9189C16.4831 14.1009 16.4916 14.2841 16.5089 14.464C16.5206 14.5861 16.5679 14.7021 16.6451 14.7976C16.7222 14.893 16.8257 14.9636 16.9427 15.0006C17.4027 15.1466 17.8848 15.2715 18.3802 15.3765C18.3967 15.5308 18.4051 15.6858 18.4053 15.841V15.8543C16.9647 16.2456 15.4778 16.4401 13.985 16.4324C12.4922 16.4402 11.0052 16.2457 9.56462 15.8543V15.841L9.56454 15.8413ZM11.9795 8.16528C11.9795 7.76863 12.0971 7.38089 12.3174 7.05108C12.5378 6.72127 12.851 6.46421 13.2174 6.31241C13.5839 6.16061 13.9871 6.12089 14.3761 6.19826C14.7652 6.27563 15.1225 6.46663 15.403 6.74709C15.6835 7.02756 15.8745 7.3849 15.9519 7.77392C16.0293 8.16295 15.9895 8.56619 15.8378 8.93264C15.686 9.2991 15.4289 9.61232 15.0991 9.83268C14.7693 10.0531 14.3816 10.1707 13.9849 10.1707C13.4532 10.1703 12.9433 9.95884 12.5673 9.58285C12.1913 9.20686 11.9799 8.69702 11.9795 8.16528ZM22.1533 9.4984C20.9813 9.49981 19.8577 9.96604 19.029 10.7948C18.2004 11.6236 17.7343 12.7472 17.733 13.9192V13.9324C19.1735 14.3238 20.6605 14.5183 22.1533 14.5105C23.6461 14.5183 25.1331 14.3238 26.5737 13.9324V13.9192C26.5724 12.7472 26.1063 11.6235 25.2776 10.7947C24.4489 9.96595 23.3253 9.49975 22.1533 9.4984ZM20.1479 6.24317C20.1479 5.84652 20.2655 5.45877 20.4859 5.12896C20.7062 4.79915 21.0194 4.54209 21.3859 4.3903C21.7523 4.2385 22.1556 4.19878 22.5446 4.27615C22.9336 4.35353 23.291 4.54454 23.5715 4.82501C23.8519 5.10549 24.0429 5.46283 24.1203 5.85186C24.1977 6.24089 24.158 6.64413 24.0062 7.01059C23.8544 7.37704 23.5973 7.69025 23.2675 7.91061C22.9377 8.13097 22.5499 8.24858 22.1533 8.24856C21.6216 8.24792 21.1119 8.03643 20.736 7.66049C20.36 7.28454 20.1485 6.77484 20.1479 6.24317ZM30.3221 11.4206C31.4941 11.4219 32.6177 11.8881 33.4463 12.7169C34.275 13.5457 34.741 14.6693 34.7422 15.8413V15.8546C33.3016 16.246 31.8147 16.4405 30.3219 16.4327C28.8292 16.4404 27.3424 16.246 25.9019 15.8546V15.8413C25.9021 15.6862 25.9101 15.5312 25.9258 15.3768C26.422 15.2718 26.9033 15.1469 27.364 15.0009C27.4809 14.9639 27.5843 14.8933 27.6615 14.7979C27.7386 14.7026 27.786 14.5867 27.7978 14.4647C27.8148 14.285 27.8236 14.1016 27.8236 13.9192C27.8234 13.3906 27.7492 12.8647 27.6032 12.3567C28.3792 11.7492 29.3365 11.4197 30.322 11.4209L30.3221 11.4206ZM28.3167 8.16528C28.3166 7.76859 28.4342 7.38079 28.6546 7.05093C28.8749 6.72108 29.1881 6.46397 29.5546 6.31214C29.9211 6.16031 30.3244 6.12057 30.7135 6.19794C31.1025 6.27531 31.4599 6.46633 31.7404 6.74683C32.021 7.02732 32.212 7.38471 32.2894 7.77378C32.3668 8.16285 32.327 8.56613 32.1752 8.93262C32.0234 9.29911 31.7663 9.61235 31.4365 9.83272C31.1066 10.0531 30.7188 10.1707 30.3221 10.1707C29.7904 10.1701 29.2807 9.95857 28.9048 9.58262C28.5288 9.20668 28.3173 8.69696 28.3167 8.16528ZM8.77345 16.9231C10.3438 17.4203 12.1459 17.6831 13.9852 17.6831C15.8244 17.6831 17.6258 17.4203 19.1957 16.9231C19.3126 16.886 19.416 16.8154 19.4932 16.7201C19.5703 16.6247 19.6177 16.5088 19.6295 16.3868C19.6465 16.2071 19.6553 16.0237 19.6553 15.8413C19.6553 15.7591 19.6532 15.6769 19.6491 15.5947C20.4793 15.7057 21.3159 15.7612 22.1535 15.7609C22.991 15.7612 23.8276 15.7057 24.6577 15.5947C24.6543 15.6769 24.6525 15.7591 24.6521 15.8413C24.6521 16.0226 24.6606 16.2062 24.6779 16.3864C24.6896 16.5085 24.7369 16.6245 24.814 16.7199C24.891 16.8153 24.9945 16.886 25.1114 16.9231C26.6811 17.4203 28.4834 17.6831 30.3224 17.6831C32.1613 17.6831 33.9638 17.4203 35.5333 16.9231C35.6502 16.886 35.7536 16.8154 35.8307 16.7201C35.9078 16.6247 35.9552 16.5088 35.967 16.3868C35.9841 16.2071 35.9929 16.0237 35.9929 15.8413C35.9916 14.7181 35.6573 13.6206 35.0322 12.6875C34.4071 11.7544 33.5193 11.0276 32.4811 10.5991C32.9754 10.1611 33.3248 9.58301 33.4828 8.94171C33.6409 8.30042 33.6001 7.62622 33.3659 7.00866C33.1317 6.39109 32.7151 5.85938 32.1716 5.48413C31.6281 5.10888 30.9833 4.90784 30.3228 4.90772C29.6623 4.9076 29.0174 5.1084 28.4738 5.48346C27.9301 5.85851 27.5134 6.39007 27.279 7.00755C27.0446 7.62503 27.0035 8.29922 27.1613 8.94057C27.3191 9.58192 27.6683 10.1601 28.1624 10.5983C27.7924 10.7505 27.4396 10.9416 27.1102 11.1686C26.4848 10.0467 25.4989 9.16873 24.3123 8.677C24.8066 8.23892 25.1559 7.66082 25.3139 7.01949C25.4719 6.37816 25.4311 5.70394 25.1968 5.08638C24.9625 4.46882 24.5459 3.93714 24.0023 3.56196C23.4587 3.18678 22.8138 2.98584 22.1533 2.98584C21.4928 2.98584 20.848 3.18678 20.3044 3.56196C19.7608 3.93714 19.3442 4.46882 19.1099 5.08638C18.8756 5.70394 18.8348 6.37816 18.9927 7.01949C19.1507 7.66082 19.5001 8.23892 19.9944 8.677C18.8082 9.16896 17.8227 10.0469 17.1975 11.1686C16.8675 10.9418 16.5144 10.7506 16.1441 10.5983C16.6381 10.1601 16.9872 9.58193 17.1448 8.94064C17.3025 8.29935 17.2614 7.62526 17.027 7.00788C16.7925 6.3905 16.3758 5.85905 15.8322 5.48409C15.2886 5.10913 14.6437 4.90841 13.9833 4.90857C13.3229 4.90874 12.6782 5.10979 12.1348 5.48502C11.5913 5.86026 11.1749 6.39192 10.9408 7.00942C10.7066 7.62692 10.6658 8.30103 10.8239 8.94224C10.9819 9.58346 11.3312 10.1614 11.8255 10.5994C10.7874 11.0281 9.89982 11.7549 9.27486 12.688C8.64989 13.6211 8.31565 14.7186 8.31439 15.8416C8.31439 16.024 8.32329 16.2072 8.34025 16.3871C8.35189 16.5091 8.39915 16.625 8.47614 16.7203C8.55314 16.8157 8.65647 16.8863 8.77329 16.9234L8.77345 16.9231ZM1.70157 25.5637L4.48071 23.6975C4.68907 23.5585 4.944 23.5075 5.1898 23.5558C5.4356 23.6041 5.65228 23.7478 5.79251 23.9554L11.4793 32.4234C11.619 32.6317 11.6703 32.8869 11.622 33.133C11.5736 33.3791 11.4296 33.5959 11.2215 33.7359L8.44212 35.6023C8.23379 35.7419 7.97862 35.7931 7.73257 35.7448C7.48652 35.6964 7.26968 35.5525 7.12962 35.3445L1.44353 26.8757C1.30391 26.6674 1.25264 26.4122 1.30097 26.1662C1.34931 25.9201 1.4933 25.7033 1.70134 25.5632L1.70157 25.5637ZM7.809 24.6897L7.7972 24.6982L12.002 30.9593L12.0863 30.89C12.198 30.7991 12.3375 30.7494 12.4815 30.7493H26.4542C27.0484 30.7608 27.6254 30.5506 28.073 30.1597L37.8613 21.9317C38.4761 21.4149 39.0224 20.5141 38.5388 19.6763C38.1034 18.9222 37.1325 18.6685 36.3284 19.0988L27.5692 23.7819C27.4753 24.3884 27.1677 24.9413 26.702 25.3409C26.2362 25.7404 25.643 25.9604 25.0293 25.961H19.1966C19.0308 25.961 18.8718 25.8951 18.7546 25.7779C18.6374 25.6607 18.5716 25.5017 18.5716 25.336C18.5716 25.1702 18.6374 25.0113 18.7546 24.894C18.8718 24.7768 19.0308 24.711 19.1966 24.711H25.0293C25.2034 24.7123 25.3761 24.6792 25.5374 24.6135C25.6986 24.5478 25.8453 24.4508 25.9689 24.3281C26.0925 24.2055 26.1906 24.0596 26.2576 23.8988C26.3245 23.738 26.359 23.5656 26.359 23.3915C26.359 23.2174 26.3245 23.0449 26.2576 22.8842C26.1906 22.7234 26.0925 22.5775 25.9689 22.4549C25.8453 22.3322 25.6986 22.2352 25.5374 22.1695C25.3761 22.1038 25.2034 22.0707 25.0293 22.072H19.1966C19.0589 22.0721 18.9251 22.0268 18.8159 21.943C17.5408 20.9631 15.9382 20.5099 14.3387 20.6769C12.7393 20.844 11.2649 21.6186 10.2199 22.8408C10.195 22.87 10.1675 22.8968 10.1377 22.9208C9.61837 23.3407 8.69876 24.0263 7.809 24.6897ZM6.09181 36.0413L0.405011 27.5731C0.0809695 27.0894 -0.0379206 26.4969 0.0744382 25.9257C0.186797 25.3545 0.521223 24.8511 1.00431 24.5262L3.78376 22.6597C4.26742 22.3358 4.85977 22.217 5.43094 22.3292C6.0021 22.4414 6.50546 22.7755 6.83064 23.2583L7.09931 23.659C7.94306 23.0301 8.80806 22.3851 9.30782 21.9834C10.5413 20.5636 12.2615 19.657 14.13 19.442C15.9984 19.2271 17.8796 19.7194 19.4032 20.822H25.0292C25.544 20.8225 26.0468 20.9775 26.4725 21.2668C26.8983 21.5562 27.2274 21.9667 27.4174 22.4452L35.7387 17.9961C37.1411 17.2461 38.8465 17.7097 39.6206 19.0508C40.3263 20.2727 39.9424 21.8148 38.6652 22.8881L28.8769 31.1162C28.2026 31.6936 27.3419 32.0072 26.4542 31.999H12.7042L12.6817 32.0175C12.9042 32.4924 12.9495 33.0311 12.8096 33.5365C12.6696 34.0419 12.3535 34.4806 11.9184 34.7733L9.13845 36.6405C8.65481 36.9646 8.06236 37.0835 7.49112 36.9712C6.91988 36.8589 6.41654 36.5246 6.09157 36.0415L6.09181 36.0413Z" stroke="#3173B0" stroke-width="8" mask="url(#path-1-inside-1_14_219)"/>
</svg>
