<svg width="40" height="40" viewBox="0 0 40 40" fill="none" xmlns="http://www.w3.org/2000/svg">
<rect width="40" height="40" fill="white"/>
<path d="M38.7489 15.6667L38.75 15.6667C38.8163 15.6667 38.8799 15.6403 38.9268 15.5934C38.9737 15.5466 39 15.483 39 15.4167V2.91667C39 1.86062 38.1394 1 37.0833 1H22.9167C21.8606 1 21 1.86062 21 2.91667V10.4167C21 11.4727 21.8606 12.3333 22.9167 12.3333H32.7407H32.7417V13.3333C33.1529 13.3324 33.5551 13.4543 33.8967 13.6833L38.7489 15.6667ZM38.7489 15.6667C38.7003 15.6667 38.6528 15.6523 38.6125 15.6253L38.6114 15.6246L34.4537 12.8528C34.4533 12.8526 34.453 12.8524 34.4527 12.8521L38.7489 15.6667ZM16.5 10.4167L16.5 10.4203C16.5043 11.5918 16.8299 12.7397 17.4415 13.7389C17.7919 14.3115 18.2286 14.8227 18.7334 15.2558C18.2383 15.5186 17.6779 15.6667 17.0833 15.6667H7.26667C6.66329 15.6667 6.06267 15.8453 5.56507 16.1837L1.38833 18.9587C1.38831 18.9587 1.38829 18.9587 1.38827 18.9587C1.35062 18.9837 1.30689 18.9981 1.26174 19.0002C1.21656 19.0023 1.17166 18.9921 1.13182 18.9708C1.09196 18.9494 1.05866 18.9176 1.03545 18.8788L0.177228 19.3921L1.03545 18.8788C1.01223 18.84 0.999983 18.7956 1 18.7504V18.75V6.25C1 5.19395 1.86062 4.33333 2.91667 4.33333H16.5L16.5 10.4167Z" stroke="#3173B0" stroke-width="2"/>
<path d="M13.1667 25C13.1667 27.2091 11.3758 29 9.16669 29C6.95755 29 5.16669 27.2091 5.16669 25C5.16669 22.7909 6.95755 21 9.16669 21C11.3758 21 13.1667 22.7909 13.1667 25Z" stroke="#3173B0" stroke-width="2"/>
<path d="M34.8333 25C34.8333 27.2091 33.0425 29 30.8333 29C28.6242 29 26.8333 27.2091 26.8333 25C26.8333 22.7909 28.6242 21 30.8333 21C33.0425 21 34.8333 22.7909 34.8333 25Z" stroke="#3173B0" stroke-width="2"/>
<path d="M2.05051 33.7173C2.72243 33.0453 3.63352 32.6675 4.58375 32.6667H13.7496C14.6998 32.6675 15.6109 33.0453 16.2828 33.7173C16.9548 34.3893 17.3326 35.3005 17.3333 36.2508V38.7501C17.3333 38.8164 17.307 38.88 17.2601 38.9269C17.2132 38.9737 17.1496 39.0001 17.0833 39.0001H1.25C1.11228 39.0001 1 38.8878 1 38.7501V36.2505C1.00077 35.3003 1.37859 34.3892 2.05051 33.7173ZM23.7172 33.7173C24.3891 33.0453 25.3002 32.6675 26.2504 32.6667H35.4163C36.3665 32.6675 37.2776 33.0453 37.9495 33.7173C38.6215 34.3893 38.9993 35.3005 39 36.2508V38.7501C39 38.8164 38.9737 38.88 38.9268 38.9269C38.8799 38.9737 38.8163 39.0001 38.75 39.0001H22.9167C22.779 39.0001 22.6667 38.8878 22.6667 38.7501V36.2508C22.6674 35.3005 23.0452 34.3893 23.7172 33.7173Z" stroke="#3173B0" stroke-width="2"/>
</svg>
