<svg width="24" height="24" viewBox="0 0 24 24" fill="none" xmlns="http://www.w3.org/2000/svg">
<g clip-path="url(#clip0_37_337)">
<path d="M12 24C18.6274 24 24 18.6274 24 12C24 5.37258 18.6274 0 12 0C5.37258 0 0 5.37258 0 12C0 18.6274 5.37258 24 12 24Z" fill="white"/>
<path d="M12 19C11.8011 19 11.6103 18.921 11.4697 18.7803C11.329 18.6397 11.25 18.4489 11.25 18.25V5.75C11.25 5.55109 11.329 5.36032 11.4697 5.21967C11.6103 5.07902 11.8011 5 12 5C12.1989 5 12.3897 5.07902 12.5303 5.21967C12.671 5.36032 12.75 5.55109 12.75 5.75V18.25C12.75 18.4489 12.671 18.6397 12.5303 18.7803C12.3897 18.921 12.1989 19 12 19Z" fill="#3173B0"/>
<path d="M12 19C11.9015 19.0002 11.8039 18.9809 11.7129 18.9432C11.6219 18.9054 11.5394 18.8499 11.47 18.78L7.46998 14.78C7.40032 14.7103 7.34506 14.6276 7.30735 14.5366C7.26965 14.4456 7.25024 14.348 7.25024 14.2495C7.25024 14.151 7.26965 14.0534 7.30735 13.9624C7.34506 13.8714 7.40032 13.7887 7.46998 13.719C7.53965 13.6493 7.62236 13.5941 7.71338 13.5564C7.8044 13.5187 7.90196 13.4993 8.00048 13.4993C8.09901 13.4993 8.19657 13.5187 8.28759 13.5564C8.37861 13.5941 8.46132 13.6493 8.53098 13.719L12.001 17.189L15.471 13.719C15.5407 13.6493 15.6234 13.5941 15.7144 13.5564C15.8054 13.5187 15.903 13.4993 16.0015 13.4993C16.1 13.4993 16.1976 13.5187 16.2886 13.5564C16.3796 13.5941 16.4623 13.6493 16.532 13.719C16.6017 13.7887 16.6569 13.8714 16.6946 13.9624C16.7323 14.0534 16.7517 14.151 16.7517 14.2495C16.7517 14.348 16.7323 14.4456 16.6946 14.5366C16.6569 14.6276 16.6017 14.7103 16.532 14.78L12.532 18.78C12.4621 18.8498 12.3792 18.9052 12.2879 18.9429C12.1966 18.9807 12.0988 19.0001 12 19Z" fill="#3173B0"/>
</g>
<defs>
<clipPath id="clip0_37_337">
<rect width="24" height="24" fill="white"/>
</clipPath>
</defs>
</svg>
