<svg width="40" height="40" viewBox="0 0 40 40" fill="none" xmlns="http://www.w3.org/2000/svg">
<g clip-path="url(#clip0_1_742)">
<mask id="mask0_1_742" style="mask-type:luminance" maskUnits="userSpaceOnUse" x="0" y="0" width="40" height="40">
<path d="M39.4999 39.5V0.500118H0.499999V39.5H39.4999Z" fill="white" stroke="white" stroke-width="0.999997"/>
</mask>
<g mask="url(#mask0_1_742)">
<path d="M39.2186 22.6563V17.3438C39.2186 16.9123 38.8689 16.5626 38.4374 16.5626H35.5141C35.1154 14.7506 34.4003 13.0232 33.4018 11.4595L35.4679 9.39353C35.7729 9.08837 35.7729 8.59376 35.4679 8.28861L31.7114 4.53213C31.4062 4.22706 30.9116 4.22706 30.6065 4.53213L28.5405 6.59822C26.9768 5.59967 25.2494 4.88462 23.4374 4.48588V1.56261C23.4374 1.13113 23.0877 0.781364 22.6562 0.781364H17.3437C16.9122 0.781364 16.5625 1.13113 16.5625 1.56261V4.49018C14.753 4.89081 13.0282 5.60698 11.4671 6.60588L9.39341 4.53213C9.08826 4.22706 8.59365 4.22706 8.28849 4.53213L4.53202 8.28861C4.22694 8.59376 4.22694 9.08837 4.53202 9.39353L6.6103 11.4718C5.61573 13.0322 4.90332 14.7554 4.50561 16.5626H1.5625C1.13101 16.5626 0.78125 16.9123 0.78125 17.3438V22.6563C0.78125 23.0878 1.13101 23.4375 1.5625 23.4375H4.50991C4.90954 25.2423 5.62306 26.9628 6.61795 28.5207L4.53202 30.6066C4.22694 30.9117 4.22694 31.4064 4.53202 31.7115L8.28849 35.468C8.59365 35.7731 9.08826 35.7731 9.39341 35.468L11.4793 33.382C13.0372 34.3769 14.7577 35.0905 16.5625 35.4901V38.4375C16.5625 38.869 16.9122 39.2188 17.3437 39.2188H22.6562C23.0877 39.2188 23.4374 38.869 23.4374 38.4375V35.4944C25.2446 35.0967 26.9678 34.3843 28.5282 33.3897L30.6065 35.468C30.9116 35.7731 31.4062 35.7731 31.7114 35.468L35.4679 31.7115C35.7729 31.4064 35.7729 30.9117 35.4679 30.6066L33.3941 28.5329C34.393 26.9718 35.1092 25.247 35.5098 23.4375H38.4374C38.8689 23.4375 39.2186 23.0878 39.2186 22.6563Z" stroke="#3173B0" stroke-width="2" stroke-miterlimit="10" stroke-linecap="round" stroke-linejoin="round"/>
<path d="M29.5082 15.2519C31.4955 19.2302 30.8305 24.1955 27.513 27.513C23.3637 31.6623 16.6363 31.6623 12.487 27.513C8.33771 23.3638 8.33771 16.6364 12.487 12.4871C15.9294 9.04465 21.1463 8.45817 25.1933 10.7277" stroke="#3173B0" stroke-width="2" stroke-miterlimit="10" stroke-linecap="round" stroke-linejoin="round"/>
<path d="M23.2409 15.026L18.8974 19.3694L16.759 17.231L13.9568 20.0333L16.0952 22.1717L18.8974 24.9739L26.043 17.8283L23.2409 15.026Z" stroke="#3173B0" stroke-width="2" stroke-miterlimit="10" stroke-linecap="round" stroke-linejoin="round"/>
</g>
</g>
<defs>
<clipPath id="clip0_1_742">
<rect width="40" height="40" fill="white"/>
</clipPath>
</defs>
</svg>
