<svg width="160" height="21" viewBox="0 0 160 21" fill="none" xmlns="http://www.w3.org/2000/svg">
<path d="M25.988 12.0205C25.4466 12.0205 24.9173 11.9593 24.4 11.8368C23.8827 11.7143 23.4857 11.5796 23.209 11.4203C23.0406 11.3223 22.9324 11.2243 22.8963 11.1263C22.8481 11.0283 22.8361 10.9304 22.8361 10.8324V10.3056C22.8361 10.0851 22.9083 9.9749 23.0647 9.9749C23.1248 9.9749 23.185 9.98715 23.2572 10.0117C23.3173 10.0361 23.4136 10.0729 23.5218 10.1219C23.8707 10.2811 24.2436 10.4036 24.6526 10.4894C25.0617 10.5751 25.4707 10.6119 25.8797 10.6119C26.5293 10.6119 27.0225 10.5016 27.3834 10.2689C27.7323 10.0361 27.9128 9.70542 27.9128 9.27669C27.9128 8.9827 27.8165 8.73771 27.6361 8.54173C27.4556 8.34574 27.1068 8.162 26.6015 7.9905L25.1098 7.51278C24.3519 7.26779 23.8105 6.91256 23.4617 6.44708C23.1248 5.98161 22.9444 5.47938 22.9444 4.92816C22.9444 4.48719 23.0406 4.09521 23.2211 3.76447C23.4015 3.43374 23.6542 3.13976 23.9549 2.90702C24.2557 2.67428 24.6166 2.49054 25.0256 2.36804C25.4346 2.24555 25.8677 2.1843 26.3248 2.1843C26.5534 2.1843 26.7819 2.19655 27.0225 2.2333C27.2511 2.27005 27.4797 2.3068 27.6842 2.3558C27.8887 2.40479 28.0932 2.45379 28.2737 2.51504C28.4541 2.57628 28.5985 2.63753 28.7068 2.69878C28.8511 2.78452 28.9474 2.87027 29.0075 2.95601C29.0677 3.04176 29.0917 3.152 29.0917 3.299V3.78897C29.0917 4.00946 29.0195 4.1197 28.8632 4.1197C28.7789 4.1197 28.6466 4.08296 28.4662 3.99721C27.8767 3.72772 27.215 3.59298 26.4932 3.59298C25.9038 3.59298 25.4466 3.69098 25.1218 3.88697C24.797 4.08296 24.6406 4.38919 24.6406 4.81792C24.6406 5.1119 24.7368 5.35689 24.9414 5.56513C25.1459 5.76112 25.5188 5.95711 26.0722 6.14085L27.5278 6.61858C28.2737 6.86356 28.803 7.1943 29.1158 7.62302C29.4285 8.05175 29.597 8.54173 29.597 9.09295C29.597 9.54618 29.5128 9.9504 29.3323 10.3056C29.1519 10.6609 28.8992 10.9794 28.5865 11.2366C28.2737 11.4938 27.8887 11.6898 27.4436 11.8246C26.9985 11.9471 26.5173 12.0205 25.988 12.0205ZM12.7911 11.7388C12.6106 11.7388 12.4783 11.7021 12.3941 11.6408C12.3099 11.5796 12.2377 11.4326 12.1775 11.2243L9.77155 3.12751C9.7114 2.91927 9.68734 2.78452 9.68734 2.71103C9.68734 2.53954 9.77155 2.45379 9.93997 2.45379H10.9505C11.143 2.45379 11.2753 2.49054 11.3595 2.55178C11.4317 2.61303 11.5039 2.76002 11.564 2.96826L13.2963 9.88916L14.8722 2.96826C14.9204 2.76002 14.9805 2.62528 15.0647 2.55178C15.1489 2.49054 15.2813 2.45379 15.4737 2.45379H16.3038C16.4963 2.45379 16.6286 2.49054 16.7128 2.55178C16.7971 2.61303 16.8572 2.76002 16.9053 2.96826L18.5294 9.98715L20.3098 2.96826C20.37 2.76002 20.4421 2.62528 20.5143 2.55178C20.5865 2.49054 20.7309 2.45379 20.9233 2.45379H21.8737C22.0421 2.45379 22.1263 2.53954 22.1263 2.71103C22.1263 2.76002 22.1143 2.80902 22.1143 2.87027C22.1022 2.93152 22.0782 3.01726 22.0421 3.12751L19.5639 11.2243C19.5037 11.4326 19.4316 11.5673 19.3474 11.6408C19.2632 11.7021 19.1308 11.7388 18.9504 11.7388H18.0722C17.8797 11.7388 17.7474 11.7021 17.6632 11.6286C17.579 11.5551 17.5188 11.4203 17.4707 11.2121L15.8707 4.47494L14.2827 11.2121C14.2346 11.4203 14.1745 11.5551 14.0902 11.6286C14.006 11.7021 13.8737 11.7388 13.6812 11.7388H12.7911ZM4.52647 10.5996C4.86331 10.5996 5.21218 10.5384 5.58511 10.4036C5.95804 10.2811 6.28285 10.0484 6.55954 9.72991C6.72796 9.53393 6.84826 9.31344 6.90841 9.0562C6.96856 8.81121 7.00465 8.50498 7.00465 8.14975V7.70877C6.7039 7.63527 6.39112 7.57403 6.05428 7.53728C5.72947 7.50053 5.40466 7.47603 5.09188 7.47603C4.40617 7.47603 3.90091 7.61077 3.56407 7.89251C3.22723 8.17425 3.05881 8.57847 3.05881 9.1052C3.05881 9.59517 3.17911 9.96265 3.43174 10.2076C3.70843 10.4771 4.0573 10.5996 4.52647 10.5996ZM8.70088 9.0072C8.70088 9.39918 8.73697 9.70542 8.82118 9.93815C8.89336 10.1709 9.01366 10.4159 9.15802 10.6854C9.20614 10.7711 9.2302 10.8446 9.2302 10.9181C9.2302 11.0283 9.17005 11.1263 9.03772 11.2243L8.37607 11.6898C8.27983 11.7511 8.19562 11.7756 8.11141 11.7756C8.00314 11.7756 7.9069 11.7266 7.81066 11.6286C7.6663 11.4816 7.546 11.3223 7.43773 11.1386C7.34149 10.9671 7.23322 10.7589 7.12495 10.5261C6.31894 11.4938 5.30842 11.9715 4.10542 11.9715C3.23926 11.9715 2.55355 11.7266 2.06032 11.2243C1.55506 10.7221 1.30243 10.0484 1.30243 9.21544C1.30243 8.32124 1.61521 7.61077 2.24077 7.05955C2.86633 6.52058 3.70843 6.23884 4.75504 6.23884C5.10391 6.23884 5.46481 6.26334 5.83774 6.32459C6.21067 6.37359 6.60766 6.45933 7.01668 6.55733V5.78562C7.01668 4.98941 6.86029 4.43819 6.53548 4.10745C6.21067 3.78897 5.65729 3.61748 4.86331 3.61748C4.50241 3.61748 4.12948 3.66648 3.75655 3.75222C3.38362 3.83797 3.01069 3.96046 2.64979 4.10745C2.48137 4.18095 2.36107 4.22995 2.28889 4.2422C2.21671 4.25445 2.16859 4.2667 2.1325 4.2667C1.98814 4.2667 1.91596 4.15645 1.91596 3.93596V3.42149C1.91596 3.25 1.94002 3.1275 1.98814 3.05401C2.03626 2.98051 2.1325 2.90702 2.27686 2.83352C2.63776 2.64978 3.07084 2.49054 3.5761 2.35579C4.08136 2.22105 4.61068 2.1598 5.17609 2.1598C6.40315 2.1598 7.29337 2.44154 7.87081 3.01726C8.43622 3.58073 8.72494 4.43819 8.72494 5.58963V9.0072H8.70088Z" fill="white"/>
<path d="M27.9367 17.1047C24.5562 19.6526 19.648 21 15.4255 21C9.50672 21 4.17743 18.7706 0.135347 15.0591C-0.177433 14.7651 0.0992573 14.3731 0.484217 14.5936C4.83908 17.1782 10.2165 18.7216 15.7864 18.7216C19.5397 18.7216 23.666 17.9254 27.4555 16.2962C28.0209 16.0513 28.4901 16.6882 27.9367 17.1047Z" fill="#FF9900"/>
<path d="M29.3441 15.4629C28.911 14.8995 26.481 15.1934 25.3862 15.3282C25.0614 15.3649 25.0013 15.0709 25.302 14.8627C27.2389 13.4785 30.4148 13.8828 30.7877 14.336C31.1606 14.8015 30.6915 18.0475 28.875 19.591C28.5983 19.8237 28.3336 19.7012 28.4539 19.3827C28.8629 18.3538 29.7772 16.0386 29.3441 15.4629Z" fill="#FF9900"/>
<path d="M39.872 3.20759C40.8386 3.20759 41.6139 3.56732 42.1978 4.28678C42.7867 5.00624 43.0811 6.07543 43.0811 7.49436C43.0811 8.43366 42.9437 9.22556 42.6689 9.87008C42.399 10.5096 42.0187 10.9942 41.5281 11.324C41.0423 11.6487 40.4755 11.8111 39.8278 11.8111C39.4156 11.8111 39.0574 11.7562 38.7532 11.6462C38.449 11.5363 38.1889 11.3939 37.973 11.2191C37.7571 11.0392 37.5756 10.8443 37.4284 10.6345H37.3253C37.3498 10.8344 37.3719 11.0567 37.3915 11.3015C37.4161 11.5413 37.4284 11.7612 37.4284 11.961V15.341H35.6913V3.36497H37.1045L37.3474 4.51161H37.4284C37.5805 4.27678 37.7645 4.05945 37.9804 3.8596C38.2012 3.65975 38.4662 3.50237 38.7753 3.38745C39.0893 3.26754 39.4549 3.20759 39.872 3.20759ZM39.4083 4.64651C38.9323 4.64651 38.5496 4.74393 38.2601 4.93879C37.9755 5.12864 37.7669 5.41593 37.6344 5.80064C37.5069 6.18535 37.4382 6.66749 37.4284 7.24705V7.49436C37.4284 8.1089 37.4897 8.63101 37.6124 9.06069C37.7399 9.48537 37.9485 9.81012 38.238 10.035C38.5324 10.2548 38.9299 10.3647 39.4304 10.3647C39.8524 10.3647 40.2007 10.2473 40.4755 10.0125C40.7552 9.77765 40.9638 9.4429 41.1012 9.00823C41.2386 8.57355 41.3072 8.06144 41.3072 7.47188C41.3072 6.57755 41.1502 5.88308 40.8362 5.38845C40.5271 4.89382 40.0511 4.64651 39.4083 4.64651Z" fill="white"/>
<path d="M49.2122 3.20759C49.3496 3.20759 49.4993 3.21508 49.6612 3.23007C49.8232 3.24506 49.963 3.26504 50.0808 3.29003L49.9188 4.93879C49.8158 4.90881 49.6882 4.88633 49.5361 4.87134C49.3889 4.85635 49.2564 4.84885 49.1386 4.84885C48.8295 4.84885 48.5351 4.90131 48.2554 5.00624C47.9757 5.10616 47.7279 5.26104 47.512 5.47089C47.2961 5.67573 47.1268 5.93304 47.0041 6.24281C46.8815 6.55257 46.8201 6.9123 46.8201 7.32199V11.6612H45.0831V3.36497H46.4374L46.6729 4.82637H46.7539C46.9158 4.53159 47.117 4.2618 47.3574 4.01698C47.5979 3.77216 47.8727 3.57731 48.1818 3.43242C48.4958 3.28253 48.8393 3.20759 49.2122 3.20759Z" fill="white"/>
<path d="M53.3193 3.36497V11.6612H51.5896V3.36497H53.3193ZM52.4655 0.187359C52.7305 0.187359 52.9587 0.259805 53.15 0.404696C53.3463 0.549587 53.4444 0.799399 53.4444 1.15413C53.4444 1.50387 53.3463 1.75368 53.15 1.90357C52.9587 2.04846 52.7305 2.12091 52.4655 2.12091C52.1907 2.12091 51.9576 2.04846 51.7663 1.90357C51.5798 1.75368 51.4866 1.50387 51.4866 1.15413C51.4866 0.799399 51.5798 0.549587 51.7663 0.404696C51.9576 0.259805 52.1907 0.187359 52.4655 0.187359Z" fill="white"/>
<path d="M59.0825 11.8111C58.3121 11.8111 57.6447 11.6587 57.0804 11.354C56.5162 11.0492 56.0819 10.582 55.7777 9.95252C55.4734 9.32299 55.3213 8.52359 55.3213 7.55432C55.3213 6.54508 55.4882 5.7207 55.8218 5.08118C56.1555 4.44166 56.6167 3.96952 57.2056 3.66474C57.7993 3.35997 58.4789 3.20759 59.2444 3.20759C59.7302 3.20759 60.1693 3.25755 60.5619 3.35748C60.9593 3.4524 61.2955 3.56982 61.5702 3.70971L61.055 5.11865C60.7557 4.99375 60.449 4.88882 60.135 4.80389C59.8209 4.71895 59.5192 4.67648 59.2297 4.67648C58.7537 4.67648 58.3562 4.7839 58.0373 4.99874C57.7232 5.21358 57.4877 5.53334 57.3307 5.95802C57.1786 6.3827 57.1025 6.9098 57.1025 7.53933C57.1025 8.14887 57.181 8.66349 57.3381 9.08317C57.4951 9.49786 57.7282 9.81262 58.0373 10.0275C58.3464 10.2373 58.7267 10.3422 59.1781 10.3422C59.6247 10.3422 60.0246 10.2873 60.3779 10.1773C60.7312 10.0674 61.0648 9.92504 61.3789 9.75017V11.279C61.0697 11.4589 60.7385 11.5913 60.3852 11.6762C60.0319 11.7662 59.5977 11.8111 59.0825 11.8111Z" fill="white"/>
<path d="M65.0222 3.36497V11.6612H63.2926V3.36497H65.0222ZM64.1684 0.187359C64.4334 0.187359 64.6616 0.259805 64.853 0.404696C65.0492 0.549587 65.1474 0.799399 65.1474 1.15413C65.1474 1.50387 65.0492 1.75368 64.853 1.90357C64.6616 2.04846 64.4334 2.12091 64.1684 2.12091C63.8937 2.12091 63.6606 2.04846 63.4692 1.90357C63.2828 1.75368 63.1895 1.50387 63.1895 1.15413C63.1895 0.799399 63.2828 0.549587 63.4692 0.404696C63.6606 0.259805 63.8937 0.187359 64.1684 0.187359Z" fill="white"/>
<path d="M71.7496 3.20759C72.6672 3.20759 73.3811 3.44991 73.8914 3.93454C74.4067 4.41418 74.6643 5.1861 74.6643 6.2503V11.6612H72.9346V6.58005C72.9346 5.93554 72.8046 5.4534 72.5445 5.13364C72.2844 4.80888 71.8821 4.64651 71.3374 4.64651C70.5474 4.64651 69.9978 4.89382 69.6887 5.38845C69.3845 5.88308 69.2324 6.60004 69.2324 7.53933V11.6612H67.5027V3.36497H68.8496L69.0925 4.48912H69.1882C69.3648 4.19934 69.5832 3.96202 69.8433 3.77716C70.1082 3.5873 70.4026 3.44491 70.7265 3.34998C71.0553 3.25505 71.3963 3.20759 71.7496 3.20759Z" fill="white"/>
<path d="M79.4117 15.3485C78.3076 15.3485 77.4612 15.1461 76.8724 14.7414C76.2836 14.3367 75.9891 13.7696 75.9891 13.0402C75.9891 12.5306 76.1462 12.0984 76.4602 11.7437C76.7742 11.3939 77.2232 11.1516 77.8071 11.0167C77.5863 10.9168 77.395 10.7619 77.233 10.5521C77.076 10.3372 76.9975 10.0999 76.9975 9.8401C76.9975 9.53033 77.0834 9.26553 77.2551 9.0457C77.4269 8.82586 77.6845 8.61352 78.028 8.40868C77.6011 8.22382 77.2576 7.92404 76.9975 7.50935C76.7423 7.08967 76.6148 6.59754 76.6148 6.03296C76.6148 5.43341 76.7399 4.9238 76.9902 4.50411C77.2404 4.07943 77.606 3.75717 78.0868 3.53734C78.5677 3.31251 79.1492 3.20009 79.8312 3.20009C79.9784 3.20009 80.1379 3.21009 80.3097 3.23007C80.4863 3.24506 80.6482 3.26504 80.7954 3.29003C80.9476 3.31001 81.0629 3.33249 81.1414 3.35748H83.9604V4.33924L82.5766 4.60154C82.7091 4.7914 82.8146 5.00873 82.8931 5.25355C82.9716 5.49337 83.0109 5.75567 83.0109 6.04046C83.0109 6.89981 82.7189 7.5768 82.135 8.07143C81.556 8.56106 80.7562 8.80588 79.7355 8.80588C79.4902 8.79589 79.2522 8.7759 79.0216 8.74592C78.8449 8.85584 78.71 8.97825 78.6168 9.11315C78.5236 9.24305 78.4769 9.39044 78.4769 9.55532C78.4769 9.69021 78.5236 9.80013 78.6168 9.88507C78.71 9.96501 78.8474 10.025 79.029 10.0649C79.2154 10.1049 79.4411 10.1249 79.7061 10.1249H81.1119C82.005 10.1249 82.687 10.3172 83.1581 10.702C83.6292 11.0867 83.8647 11.6512 83.8647 12.3957C83.8647 13.34 83.482 14.0669 82.7165 14.5765C81.951 15.0912 80.8494 15.3485 79.4117 15.3485ZM79.4779 14.1119C80.0815 14.1119 80.5893 14.0519 81.0015 13.932C81.4137 13.8121 81.7253 13.6397 81.9363 13.4149C82.1473 13.1951 82.2528 12.9328 82.2528 12.628C82.2528 12.3582 82.1865 12.1509 82.0541 12.006C81.9216 11.8611 81.7228 11.7612 81.4579 11.7062C81.1929 11.6512 80.8641 11.6238 80.4716 11.6238H79.1909C78.8719 11.6238 78.5898 11.6737 78.3445 11.7736C78.0991 11.8786 77.9077 12.0285 77.7703 12.2233C77.6379 12.4182 77.5716 12.653 77.5716 12.9278C77.5716 13.3075 77.736 13.5998 78.0648 13.8046C78.3984 14.0095 78.8695 14.1119 79.4779 14.1119ZM79.8165 7.65175C80.3219 7.65175 80.6973 7.51185 80.9426 7.23206C81.188 6.94728 81.3107 6.54758 81.3107 6.03296C81.3107 5.47338 81.1831 5.0537 80.9279 4.77391C80.6777 4.49412 80.3047 4.35423 79.8092 4.35423C79.3234 4.35423 78.9529 4.49662 78.6977 4.7814C78.4475 5.06619 78.3224 5.48837 78.3224 6.04795C78.3224 6.55257 78.4475 6.94728 78.6977 7.23206C78.9529 7.51185 79.3258 7.65175 79.8165 7.65175Z" fill="white"/>
<path d="M92.6456 11.8111C91.8752 11.8111 91.2079 11.6587 90.6436 11.354C90.0793 11.0492 89.645 10.582 89.3408 9.95252C89.0366 9.32299 88.8844 8.52359 88.8844 7.55432C88.8844 6.54508 89.0513 5.7207 89.3849 5.08118C89.7186 4.44166 90.1799 3.96952 90.7687 3.66474C91.3624 3.35997 92.042 3.20759 92.8075 3.20759C93.2933 3.20759 93.7325 3.25755 94.125 3.35748C94.5225 3.4524 94.8586 3.56982 95.1334 3.70971L94.6181 5.11865C94.3188 4.99375 94.0121 4.88882 93.6981 4.80389C93.3841 4.71895 93.0823 4.67648 92.7928 4.67648C92.3168 4.67648 91.9194 4.7839 91.6004 4.99874C91.2864 5.21358 91.0508 5.53334 90.8938 5.95802C90.7417 6.3827 90.6656 6.9098 90.6656 7.53933C90.6656 8.14887 90.7442 8.66349 90.9012 9.08317C91.0582 9.49786 91.2913 9.81262 91.6004 10.0275C91.9095 10.2373 92.2898 10.3422 92.7413 10.3422C93.1878 10.3422 93.5877 10.2873 93.941 10.1773C94.2943 10.0674 94.628 9.92504 94.942 9.75017V11.279C94.6329 11.4589 94.3017 11.5913 93.9484 11.6762C93.5951 11.7662 93.1608 11.8111 92.6456 11.8111Z" fill="white"/>
<path d="M100.05 3.20759C101.081 3.20759 101.858 3.43991 102.383 3.90456C102.913 4.36921 103.178 5.09367 103.178 6.07793V11.6612H101.949L101.618 10.4846H101.559C101.328 10.7844 101.09 11.0317 100.845 11.2266C100.6 11.4214 100.315 11.5663 99.9912 11.6612C99.6722 11.7612 99.2821 11.8111 98.8209 11.8111C98.3351 11.8111 97.9009 11.7212 97.5181 11.5413C97.1354 11.3565 96.8336 11.0767 96.6128 10.702C96.392 10.3272 96.2816 9.85259 96.2816 9.27802C96.2816 8.42367 96.5932 7.78165 97.2163 7.35197C97.8444 6.9223 98.7915 6.68497 100.057 6.64001L101.471 6.58755V6.15287C101.471 5.57831 101.338 5.16861 101.073 4.9238C100.813 4.67898 100.445 4.55657 99.9691 4.55657C99.5618 4.55657 99.1668 4.61653 98.7841 4.73644C98.4014 4.85635 98.0284 5.00374 97.6653 5.17861L97.1059 3.93454C97.5034 3.7197 97.9548 3.54483 98.4602 3.40994C98.9706 3.27504 99.5005 3.20759 100.05 3.20759ZM101.463 7.69671L100.411 7.73418C99.5471 7.76416 98.9411 7.91405 98.5927 8.18385C98.2443 8.45364 98.0701 8.82337 98.0701 9.29301C98.0701 9.7027 98.1904 10.0025 98.4308 10.1923C98.6712 10.3772 98.9877 10.4696 99.3803 10.4696C99.9789 10.4696 100.475 10.2973 100.867 9.95252C101.265 9.60278 101.463 9.09066 101.463 8.41617V7.69671Z" fill="white"/>
<path d="M107.337 11.6612H105.6V0H107.337V11.6612Z" fill="white"/>
<path d="M113.093 11.8111C112.322 11.8111 111.655 11.6587 111.091 11.354C110.526 11.0492 110.092 10.582 109.788 9.95252C109.484 9.32299 109.331 8.52359 109.331 7.55432C109.331 6.54508 109.498 5.7207 109.832 5.08118C110.166 4.44166 110.627 3.96952 111.216 3.66474C111.809 3.35997 112.489 3.20759 113.255 3.20759C113.74 3.20759 114.179 3.25755 114.572 3.35748C114.969 3.4524 115.306 3.56982 115.58 3.70971L115.065 5.11865C114.766 4.99375 114.459 4.88882 114.145 4.80389C113.831 4.71895 113.529 4.67648 113.24 4.67648C112.764 4.67648 112.366 4.7839 112.047 4.99874C111.733 5.21358 111.498 5.53334 111.341 5.95802C111.189 6.3827 111.113 6.9098 111.113 7.53933C111.113 8.14887 111.191 8.66349 111.348 9.08317C111.505 9.49786 111.738 9.81262 112.047 10.0275C112.357 10.2373 112.737 10.3422 113.188 10.3422C113.635 10.3422 114.035 10.2873 114.388 10.1773C114.741 10.0674 115.075 9.92504 115.389 9.75017V11.279C115.08 11.4589 114.749 11.5913 114.395 11.6762C114.042 11.7662 113.608 11.8111 113.093 11.8111Z" fill="white"/>
<path d="M124.405 3.36497V11.6612H123.044L122.808 10.5446H122.713C122.541 10.8294 122.322 11.0667 122.057 11.2565C121.793 11.4414 121.498 11.5788 121.174 11.6687C120.85 11.7637 120.509 11.8111 120.151 11.8111C119.538 11.8111 119.013 11.7062 118.576 11.4964C118.144 11.2815 117.813 10.9518 117.582 10.5071C117.352 10.0624 117.236 9.48787 117.236 8.7834V3.36497H118.973V8.45364C118.973 9.09816 119.101 9.5803 119.356 9.90006C119.616 10.2198 120.019 10.3797 120.563 10.3797C121.088 10.3797 121.505 10.2698 121.815 10.0499C122.124 9.83011 122.342 9.50535 122.47 9.07568C122.602 8.646 122.668 8.1189 122.668 7.49436V3.36497H124.405Z" fill="white"/>
<path d="M128.623 11.6612H126.886V0H128.623V11.6612Z" fill="white"/>
<path d="M134.29 3.20759C135.321 3.20759 136.099 3.43991 136.624 3.90456C137.154 4.36921 137.418 5.09367 137.418 6.07793V11.6612H136.189L135.858 10.4846H135.799C135.569 10.7844 135.331 11.0317 135.085 11.2266C134.84 11.4214 134.555 11.5663 134.231 11.6612C133.913 11.7612 133.522 11.8111 133.061 11.8111C132.575 11.8111 132.141 11.7212 131.758 11.5413C131.376 11.3565 131.074 11.0767 130.853 10.702C130.632 10.3272 130.522 9.85259 130.522 9.27802C130.522 8.42367 130.833 7.78165 131.457 7.35197C132.085 6.9223 133.032 6.68497 134.298 6.64001L135.711 6.58755V6.15287C135.711 5.57831 135.578 5.16861 135.313 4.9238C135.053 4.67898 134.685 4.55657 134.209 4.55657C133.802 4.55657 133.407 4.61653 133.024 4.73644C132.642 4.85635 132.269 5.00374 131.906 5.17861L131.346 3.93454C131.744 3.7197 132.195 3.54483 132.701 3.40994C133.211 3.27504 133.741 3.20759 134.29 3.20759ZM135.704 7.69671L134.651 7.73418C133.787 7.76416 133.181 7.91405 132.833 8.18385C132.485 8.45364 132.31 8.82337 132.31 9.29301C132.31 9.7027 132.431 10.0025 132.671 10.1923C132.912 10.3772 133.228 10.4696 133.621 10.4696C134.219 10.4696 134.715 10.2973 135.107 9.95252C135.505 9.60278 135.704 9.09066 135.704 8.41617V7.69671Z" fill="white"/>
<path d="M142.872 10.3872C143.098 10.3872 143.321 10.3672 143.542 10.3272C143.763 10.2823 143.964 10.2298 144.146 10.1699V11.5038C143.954 11.5888 143.707 11.6612 143.402 11.7212C143.098 11.7811 142.782 11.8111 142.453 11.8111C141.992 11.8111 141.577 11.7337 141.209 11.5788C140.841 11.4189 140.549 11.1466 140.333 10.7619C140.117 10.3772 140.009 9.8451 140.009 9.16561V4.70646H138.898V3.91955L140.09 3.29752L140.657 1.52136H141.746V3.36497H144.08V4.70646H141.746V9.14313C141.746 9.56281 141.849 9.87507 142.055 10.0799C142.262 10.2848 142.534 10.3872 142.872 10.3872Z" fill="white"/>
<path d="M153.015 7.49436C153.015 8.18385 152.927 8.79589 152.75 9.33048C152.573 9.86508 152.316 10.3172 151.977 10.687C151.639 11.0517 151.231 11.3315 150.755 11.5263C150.279 11.7162 149.742 11.8111 149.144 11.8111C148.584 11.8111 148.071 11.7162 147.605 11.5263C147.139 11.3315 146.734 11.0517 146.391 10.687C146.052 10.3172 145.79 9.86508 145.603 9.33048C145.417 8.79589 145.323 8.18385 145.323 7.49436C145.323 6.58005 145.478 5.80563 145.787 5.17111C146.101 4.53159 146.548 4.04446 147.127 3.70971C147.706 3.37496 148.395 3.20759 149.195 3.20759C149.946 3.20759 150.608 3.37496 151.182 3.70971C151.756 4.04446 152.205 4.53159 152.529 5.17111C152.853 5.81063 153.015 6.58505 153.015 7.49436ZM147.105 7.49436C147.105 8.09891 147.176 8.61602 147.318 9.0457C147.465 9.47538 147.691 9.80513 147.995 10.035C148.3 10.2598 148.692 10.3722 149.173 10.3722C149.654 10.3722 150.046 10.2598 150.351 10.035C150.655 9.80513 150.878 9.47538 151.02 9.0457C151.163 8.61602 151.234 8.09891 151.234 7.49436C151.234 6.88982 151.163 6.3777 151.02 5.95802C150.878 5.53334 150.655 5.21108 150.351 4.99125C150.046 4.76642 149.651 4.654 149.166 4.654C148.449 4.654 147.927 4.89882 147.598 5.38845C147.269 5.87808 147.105 6.58005 147.105 7.49436Z" fill="white"/>
<path d="M159.131 3.20759C159.269 3.20759 159.419 3.21508 159.58 3.23007C159.742 3.24506 159.882 3.26504 160 3.29003L159.838 4.93879C159.735 4.90881 159.607 4.88633 159.455 4.87134C159.308 4.85635 159.176 4.84885 159.058 4.84885C158.749 4.84885 158.454 4.90131 158.175 5.00624C157.895 5.10616 157.647 5.26104 157.431 5.47089C157.215 5.67573 157.046 5.93304 156.923 6.24281C156.801 6.55257 156.739 6.9123 156.739 7.32199V11.6612H155.002V3.36497H156.357L156.592 4.82637H156.673C156.835 4.53159 157.036 4.2618 157.277 4.01698C157.517 3.77216 157.792 3.57731 158.101 3.43242C158.415 3.28253 158.759 3.20759 159.131 3.20759Z" fill="white"/>
</svg>
