<svg width="130" height="23" viewBox="0 0 130 23" fill="none" xmlns="http://www.w3.org/2000/svg">
<g clip-path="url(#clip0_230_499)">
<path d="M48.9029 13.3121V7.11885C48.9029 6.51494 48.7882 6.07807 48.5589 5.78254C48.3295 5.49985 47.9728 5.34566 47.4886 5.34566C46.6223 5.34566 45.7431 5.6155 44.864 6.15516C44.8768 6.24511 44.8768 6.33505 44.8768 6.42499C44.8768 6.51494 44.8768 6.61773 44.8768 6.70767V13.2864H43.1057V7.09315C43.1057 6.48924 42.9911 6.05237 42.7617 5.75684C42.5324 5.47416 42.1756 5.31997 41.6915 5.31997C40.7869 5.31997 39.9205 5.5898 39.0923 6.11661V13.2736H37.3213V4.15069H38.7992L38.9776 5.06298C40.1243 4.26633 41.2328 3.88086 42.3158 3.88086C43.4243 3.88086 44.176 4.30488 44.5582 5.15293C45.7304 4.30488 46.9153 3.88086 48.0875 3.88086C48.9029 3.88086 49.5399 4.11214 49.9731 4.58756C50.4191 5.05013 50.6357 5.71829 50.6357 6.57918V13.2736H48.9029V13.3121Z" fill="white"/>
<path d="M57.9752 13.3117L57.8351 12.3737C57.4019 12.7463 56.9305 13.029 56.4208 13.2346C55.8984 13.4402 55.3888 13.543 54.8792 13.543C54.0382 13.543 53.363 13.2988 52.8533 12.8106C52.3437 12.3223 52.0889 11.6798 52.0889 10.8575C52.0889 9.98375 52.3947 9.27705 53.019 8.76308C53.6433 8.23626 54.4714 7.97928 55.5162 7.97928C56.2042 7.97928 56.9559 8.08207 57.7586 8.28766V7.10554C57.7586 6.46308 57.6185 6.00051 57.3254 5.74353C57.0324 5.47369 56.5355 5.3452 55.8347 5.3452C54.8282 5.3452 53.7834 5.52509 52.7004 5.89772V4.6385C53.1336 4.40721 53.656 4.24017 54.2676 4.11168C54.8919 3.98319 55.5162 3.91895 56.1405 3.91895C57.2745 3.91895 58.1026 4.15023 58.6378 4.62565C59.1729 5.10107 59.4404 5.82062 59.4404 6.79716V13.3117H57.9752ZM55.2996 12.1938C56.1023 12.1938 56.9305 11.8854 57.7586 11.2815V9.44409C57.1343 9.2899 56.51 9.2128 55.8729 9.2128C54.5351 9.2128 53.8599 9.73961 53.8599 10.7804C53.8599 11.2301 53.9873 11.5899 54.2294 11.834C54.4842 12.0653 54.8409 12.1938 55.2996 12.1938Z" fill="white"/>
<path d="M61.4658 13.3122V4.18925H62.9438L63.1349 5.53841C63.4662 5.17863 63.7719 4.89595 64.065 4.70321C64.358 4.51047 64.6383 4.35628 64.9441 4.26634C65.2372 4.1764 65.5684 4.125 65.9124 4.125C66.1418 4.125 66.3839 4.13785 66.6387 4.1764V5.79539C66.2564 5.74399 65.9379 5.7183 65.6704 5.7183C64.7148 5.7183 63.8994 6.00098 63.2241 6.57919V13.3122H61.4658Z" fill="white"/>
<path d="M67.7345 13.3117V0H69.5055V8.17207L73.3405 4.20168H75.4938L71.2128 8.53184L75.7741 13.3117H73.5444L69.4928 8.99441V13.3117H67.7345Z" fill="white"/>
<path d="M77.3918 9.13555C77.4173 10.1635 77.6721 10.9344 78.1563 11.4227C78.6405 11.911 79.3794 12.1551 80.3987 12.1551C81.3416 12.1551 82.2971 11.9752 83.2655 11.6026V12.8747C82.4118 13.3372 81.367 13.5814 80.1311 13.5814C78.6659 13.5814 77.5575 13.1702 76.8185 12.3607C76.0668 11.5512 75.6973 10.3434 75.6973 8.75008C75.6973 7.22103 76.0668 6.0389 76.8185 5.20371C77.5702 4.36851 78.615 3.93164 79.9528 3.93164C81.0867 3.93164 81.9531 4.25287 82.5519 4.89533C83.1635 5.53779 83.4566 6.45008 83.4566 7.61935C83.4566 8.18471 83.4056 8.69868 83.3164 9.1484H77.3918V9.13555ZM79.8509 5.26795C79.0991 5.26795 78.5131 5.49924 78.1053 5.93611C77.6849 6.38583 77.4555 7.05399 77.3918 7.94058H81.8384C81.8512 7.85063 81.8512 7.6836 81.8512 7.47801C81.8512 6.74561 81.6856 6.19309 81.3416 5.82047C81.0103 5.46069 80.5134 5.26795 79.8509 5.26795Z" fill="white"/>
<path d="M90.3629 13.0934C89.7768 13.3247 89.1143 13.4404 88.388 13.4404C86.6935 13.4404 85.8526 12.5923 85.8526 10.8834V5.58953H84.209V4.43311L85.9035 4.21467L86.1711 1.61914H87.6108V4.17612H90.2865V5.57668H87.6108V10.7934C87.6108 11.2432 87.7128 11.5515 87.9039 11.7314C88.095 11.9113 88.439 12.0013 88.9104 12.0013C89.3946 12.0013 89.8788 11.937 90.3502 11.8214V13.0934H90.3629Z" fill="white"/>
<path d="M91.573 17.0122V4.18878H93.0509L93.2166 5.12677C94.1212 4.31727 95.1277 3.91895 96.2362 3.91895C97.3956 3.91895 98.3003 4.34297 98.9628 5.19101C99.6253 6.03906 99.9566 7.18263 99.9566 8.63459C99.9566 10.1122 99.5998 11.2944 98.8991 12.181C98.1983 13.0675 97.2682 13.5173 96.0961 13.5173C95.0258 13.5173 94.1085 13.1575 93.3313 12.4508V17.0251H91.573V17.0122ZM95.7266 5.35805C94.8857 5.35805 94.083 5.62788 93.3313 6.1804V11.2044C94.1085 11.7826 94.8857 12.0653 95.6883 12.0653C97.3319 12.0653 98.1474 10.9474 98.1474 8.72453C98.1474 7.58096 97.9435 6.74576 97.5485 6.19325C97.1663 5.64073 96.5547 5.35805 95.7266 5.35805Z" fill="white"/>
<path d="M104.799 13.1832C104.404 13.3246 103.983 13.4017 103.512 13.4017C102.888 13.4017 102.403 13.2218 102.072 12.8492C101.741 12.4894 101.575 11.9626 101.575 11.2816V0H103.346V11.1659C103.346 11.4358 103.397 11.6413 103.512 11.7698C103.627 11.8983 103.818 11.9626 104.072 11.9626C104.315 11.9626 104.557 11.9497 104.799 11.9112V13.1832Z" fill="white"/>
<path d="M111.627 13.3117L111.487 12.3737C111.054 12.7463 110.583 13.029 110.073 13.2346C109.551 13.4402 109.041 13.543 108.531 13.543C107.69 13.543 107.015 13.2988 106.506 12.8106C105.996 12.3223 105.741 11.6798 105.741 10.8575C105.741 9.98375 106.047 9.27705 106.671 8.76308C107.296 8.23626 108.124 7.97928 109.168 7.97928C109.856 7.97928 110.608 8.08207 111.411 8.28766V7.10554C111.411 6.46308 111.271 6.00051 110.978 5.74353C110.685 5.47369 110.188 5.3452 109.487 5.3452C108.48 5.3452 107.436 5.52509 106.353 5.89772V4.6385C106.786 4.40721 107.308 4.24017 107.92 4.11168C108.544 3.98319 109.168 3.91895 109.793 3.91895C110.927 3.91895 111.755 4.15023 112.29 4.62565C112.825 5.10107 113.093 5.82062 113.093 6.79716V13.3117H111.627ZM108.952 12.1938C109.755 12.1938 110.583 11.8854 111.411 11.2815V9.44409C110.787 9.2899 110.162 9.2128 109.525 9.2128C108.187 9.2128 107.512 9.73961 107.512 10.7804C107.512 11.2301 107.64 11.5899 107.882 11.834C108.136 12.0653 108.493 12.1938 108.952 12.1938Z" fill="white"/>
<path d="M121.426 12.965C120.738 13.3247 119.935 13.5046 119.03 13.5046C117.629 13.5046 116.558 13.0935 115.807 12.284C115.068 11.4745 114.686 10.3052 114.686 8.76329C114.686 7.23424 115.068 6.06496 115.832 5.22977C116.597 4.39457 117.68 3.9834 119.081 3.9834C119.884 3.9834 120.623 4.15044 121.324 4.48452V5.75658C120.648 5.53815 119.986 5.43535 119.323 5.43535C118.329 5.43535 117.603 5.69234 117.17 6.2063C116.724 6.72027 116.508 7.52977 116.508 8.64764V8.87893C116.508 9.97111 116.737 10.7678 117.17 11.2817C117.616 11.7957 118.317 12.0527 119.285 12.0527C119.922 12.0527 120.623 11.937 121.387 11.6929V12.965H121.426Z" fill="white"/>
<path d="M123.935 9.13555C123.96 10.1635 124.215 10.9344 124.699 11.4227C125.183 11.911 125.922 12.1551 126.942 12.1551C127.885 12.1551 128.84 11.9752 129.808 11.6026V12.8747C128.955 13.3372 127.91 13.5814 126.674 13.5814C125.209 13.5814 124.1 13.1702 123.361 12.3607C122.61 11.5512 122.24 10.3434 122.24 8.75008C122.24 7.22103 122.61 6.0389 123.361 5.20371C124.113 4.36851 125.158 3.93164 126.496 3.93164C127.63 3.93164 128.496 4.25287 129.095 4.89533C129.707 5.53779 130 6.45008 130 7.61935C130 8.18471 129.949 8.69868 129.859 9.1484H123.935V9.13555ZM126.394 5.26795C125.642 5.26795 125.056 5.49924 124.648 5.93611C124.228 6.38583 123.998 7.05399 123.935 7.94058H128.381C128.394 7.85063 128.394 7.6836 128.394 7.47801C128.394 6.74561 128.229 6.19309 127.885 5.82047C127.541 5.46069 127.044 5.26795 126.394 5.26795Z" fill="white"/>
<path d="M27.5245 13.5809C26.9511 13.5809 26.3905 13.5166 25.8426 13.3881C25.2948 13.2597 24.8743 13.1183 24.5813 12.9513C24.4029 12.8485 24.2882 12.7457 24.25 12.6429C24.1991 12.5401 24.1863 12.4373 24.1863 12.3345V11.782C24.1863 11.5507 24.2628 11.4351 24.4284 11.4351C24.4921 11.4351 24.5558 11.4479 24.6323 11.4736C24.696 11.4993 24.7979 11.5379 24.9126 11.5893C25.282 11.7563 25.677 11.8848 26.1102 11.9747C26.5434 12.0647 26.9766 12.1032 27.4098 12.1032C28.0978 12.1032 28.6202 11.9876 29.0024 11.7435C29.3719 11.4993 29.563 11.1524 29.563 10.7027C29.563 10.3943 29.4611 10.1373 29.27 9.93172C29.0789 9.72613 28.7094 9.53339 28.1743 9.35351L26.5944 8.85239C25.7917 8.59541 25.2183 8.22278 24.8489 7.73451C24.4921 7.24624 24.301 6.71943 24.301 6.14122C24.301 5.67865 24.4029 5.26747 24.594 4.92055C24.7851 4.57362 25.0527 4.26524 25.3712 4.0211C25.6898 3.77697 26.072 3.58423 26.5052 3.45574C26.9384 3.32725 27.3971 3.263 27.8812 3.263C28.1233 3.263 28.3654 3.27585 28.6202 3.3144C28.8623 3.35295 29.1044 3.3915 29.321 3.44289C29.5376 3.49429 29.7542 3.54569 29.9453 3.60993C30.1364 3.67418 30.2893 3.73842 30.4039 3.80267C30.5568 3.89261 30.6588 3.98256 30.7225 4.0725C30.7862 4.16245 30.8117 4.27809 30.8117 4.43228V4.94624C30.8117 5.17753 30.7352 5.29317 30.5696 5.29317C30.4804 5.29317 30.3402 5.25462 30.1491 5.16468C29.5248 4.882 28.8241 4.74066 28.0596 4.74066C27.4353 4.74066 26.9511 4.84345 26.6071 5.04904C26.2631 5.25462 26.0975 5.57585 26.0975 6.02557C26.0975 6.33395 26.1994 6.59094 26.416 6.80937C26.6326 7.01496 27.0276 7.22055 27.6137 7.41328L29.1553 7.9144C29.9453 8.17138 30.5059 8.51831 30.8371 8.96803C31.1684 9.41775 31.3468 9.93172 31.3468 10.5099C31.3468 10.9854 31.2576 11.4094 31.0665 11.782C30.8754 12.1546 30.6078 12.4887 30.2765 12.7585C29.9453 13.0284 29.5376 13.234 29.0661 13.3753C28.5947 13.5038 28.0851 13.5809 27.5245 13.5809ZM13.5476 13.2853C13.3564 13.2853 13.2163 13.2468 13.1271 13.1826C13.0379 13.1183 12.9615 12.9641 12.8978 12.7457L10.3496 4.25239C10.2859 4.03395 10.2604 3.89261 10.2604 3.81552C10.2604 3.63563 10.3496 3.54569 10.5279 3.54569H11.5982C11.8021 3.54569 11.9422 3.58423 12.0314 3.64848C12.1078 3.71272 12.1843 3.86691 12.248 4.08535L14.0827 11.3451L15.7517 4.08535C15.8027 3.86691 15.8664 3.72557 15.9556 3.64848C16.0448 3.58423 16.1849 3.54569 16.3888 3.54569H17.2679C17.4718 3.54569 17.6119 3.58423 17.7011 3.64848C17.7903 3.71272 17.854 3.86691 17.905 4.08535L19.625 11.4479L21.5107 4.08535C21.5744 3.86691 21.6509 3.72557 21.7273 3.64848C21.8038 3.58423 21.9566 3.54569 22.1605 3.54569H23.167C23.3454 3.54569 23.4346 3.63563 23.4346 3.81552C23.4346 3.86691 23.4218 3.91831 23.4218 3.98256C23.409 4.0468 23.3836 4.13675 23.3454 4.25239L20.7207 12.7457C20.657 12.9641 20.5806 13.1055 20.4914 13.1826C20.4022 13.2468 20.262 13.2853 20.0709 13.2853H19.1408C18.937 13.2853 18.7968 13.2468 18.7076 13.1697C18.6184 13.0926 18.5547 12.9513 18.5038 12.7328L16.8092 5.6658L15.1274 12.7328C15.0764 12.9513 15.0127 13.0926 14.9235 13.1697C14.8343 13.2468 14.6942 13.2853 14.4903 13.2853H13.5476ZM4.79448 12.0904C5.15123 12.0904 5.52072 12.0261 5.91569 11.8848C6.31066 11.7563 6.65467 11.5122 6.94772 11.1781C7.12609 10.9725 7.2535 10.7412 7.31721 10.4714C7.38091 10.2144 7.41914 9.89317 7.41914 9.52055V9.05798C7.10061 8.98088 6.76934 8.91664 6.41259 8.87809C6.06859 8.83954 5.72458 8.81384 5.39331 8.81384C4.66707 8.81384 4.13195 8.95518 3.7752 9.25071C3.41845 9.54624 3.24007 9.97027 3.24007 10.5228C3.24007 11.0367 3.36748 11.4222 3.63505 11.6792C3.92809 11.9619 4.29758 12.0904 4.79448 12.0904ZM9.21562 10.42C9.21562 10.8312 9.25384 11.1524 9.34303 11.3965C9.41948 11.6407 9.54689 11.8976 9.69978 12.1803C9.75075 12.2703 9.77623 12.3474 9.77623 12.4245C9.77623 12.5401 9.71252 12.6429 9.57237 12.7457L8.87161 13.234C8.76969 13.2982 8.6805 13.3239 8.59131 13.3239C8.47664 13.3239 8.37471 13.2725 8.27279 13.1697C8.11989 13.0155 7.99248 12.8485 7.87781 12.6557C7.77588 12.4759 7.66122 12.2574 7.54655 12.0133C6.6929 13.0284 5.62265 13.5295 4.34854 13.5295C3.43119 13.5295 2.70495 13.2725 2.18257 12.7457C1.64744 12.2189 1.37988 11.5122 1.37988 10.6384C1.37988 9.70043 1.71115 8.95518 2.37368 8.37697C3.03622 7.81161 3.92809 7.51608 5.03656 7.51608C5.40605 7.51608 5.78828 7.54177 6.18325 7.60602C6.57823 7.65742 6.99868 7.74736 7.43188 7.85015V7.04066C7.43188 6.20546 7.26624 5.62725 6.92224 5.28032C6.57823 4.94624 5.99214 4.76636 5.15123 4.76636C4.769 4.76636 4.37403 4.81775 3.97906 4.9077C3.58408 4.99764 3.18911 5.12613 2.80688 5.28032C2.62851 5.35742 2.50109 5.40881 2.42465 5.42166C2.3482 5.43451 2.29724 5.44736 2.25902 5.44736C2.10612 5.44736 2.02968 5.33172 2.02968 5.10043V4.56077C2.02968 4.38088 2.05516 4.25239 2.10612 4.17529C2.15709 4.0982 2.25902 4.0211 2.41191 3.94401C2.79414 3.75127 3.25282 3.58423 3.78794 3.44289C4.32306 3.30155 4.88367 3.2373 5.4825 3.2373C6.78208 3.2373 7.72492 3.53284 8.33649 4.13675C8.93532 4.72781 9.2411 5.62725 9.2411 6.83507V10.42H9.21562Z" fill="white"/>
<path d="M29.5879 18.9137C26.0076 21.5863 20.8093 22.9997 16.3372 22.9997C10.0686 22.9997 4.42434 20.6611 0.143347 16.7678C-0.18792 16.4595 0.105124 16.0483 0.512837 16.2796C5.1251 18.9908 10.8203 20.6097 16.7194 20.6097C20.6946 20.6097 25.0648 19.7745 29.0782 18.0656C29.6771 17.8086 30.174 18.4768 29.5879 18.9137Z" fill="#FF9900"/>
<path d="M31.079 17.1919C30.6203 16.6009 28.0466 16.9093 26.8872 17.0506C26.5431 17.0892 26.4794 16.7808 26.798 16.5623C28.8493 15.1104 32.2129 15.5344 32.6079 16.0098C33.0029 16.4981 32.506 19.9031 30.5821 21.5221C30.289 21.7662 30.0087 21.6378 30.1361 21.3037C30.5693 20.2243 31.5376 17.7959 31.079 17.1919Z" fill="#FF9900"/>
</g>
<defs>
<clipPath id="clip0_230_499">
<rect width="130" height="23" fill="white"/>
</clipPath>
</defs>
</svg>
